<svg width="60" height="60" viewBox="0 0 60 60" fill="none" xmlns="http://www.w3.org/2000/svg">
<path d="M39.0567 28.6957C39.1921 28.8997 39.3332 29.0217 39.3332 29.1442C39.3332 29.2117 39.1019 29.28 38.9721 29.3478C38.8649 29.2373 38.6957 29.134 38.6675 29.0129C38.6505 28.9474 38.8593 28.8502 39.0567 28.6957Z" fill="currentColor"/>
<path fill-rule="evenodd" clip-rule="evenodd" d="M51.2822 27.2414C51.0822 27.514 50.8821 27.7866 50.6807 28.0581C50.7134 28.0884 50.746 28.1181 50.7787 28.1477L50.7921 28.1599C53.5582 25.741 55.3357 22.6907 56.6027 19.0975C56.6855 19.3938 56.7655 19.6708 56.8416 19.9344C57.0382 20.6157 57.2088 21.2068 57.336 21.8068C57.3735 21.98 57.3057 22.1737 57.2376 22.3683C57.2046 22.4625 57.1715 22.557 57.1503 22.6494C57.1411 22.6878 57.1441 22.7285 57.1472 22.7696C57.1488 22.7904 57.1503 22.8113 57.1503 22.832L57.2222 22.817C57.3455 22.7913 57.4697 22.7654 57.633 22.7308C57.7019 22.9487 57.7638 23.1686 57.8255 23.3876C57.9593 23.8623 58.092 24.3333 58.292 24.774C58.6772 25.613 58.4034 26.1615 57.7722 26.7516C56.2082 28.2242 54.5003 29.5128 52.6857 30.6689C52.2879 30.922 51.8947 31.1814 51.5013 31.4409C51.33 31.5539 51.1588 31.6669 50.987 31.7794C52.0359 31.5714 52.8992 31.0321 53.7485 30.4783C54.6163 29.9118 55.4796 29.3382 56.2917 28.7C56.8321 28.2722 57.3412 27.8029 57.8886 27.2983C58.1311 27.0747 58.3811 26.8442 58.6448 26.6073C58.6648 26.8416 58.6813 27.056 58.6968 27.257C58.7278 27.6596 58.7546 28.0084 58.7979 28.3554C58.8861 29.0678 58.6169 29.5735 58.0043 29.9761C56.943 30.6728 55.8975 31.3897 54.852 32.1065C54.5075 32.3427 54.1631 32.5789 53.8181 32.8143C53.5948 32.9647 53.3787 33.1197 53.1629 33.2744C53.0782 33.3352 52.9935 33.3959 52.9084 33.4563C54.8119 32.9655 56.3506 31.8641 57.948 30.7207C58.2317 30.5176 58.5173 30.3131 58.8072 30.1105L58.8072 31.3645C58.664 31.4352 58.5234 31.5034 58.3847 31.5707C58.1009 31.7084 57.8254 31.842 57.5541 31.985C57.1457 32.2002 56.7419 32.4203 56.3521 32.6697C56.2733 32.7205 56.1896 32.7655 56.1055 32.8108C55.8179 32.9655 55.5259 33.1226 55.4146 33.5212C55.6375 33.412 55.8605 33.3028 56.0834 33.1936C56.9699 32.7594 57.8569 32.325 58.7469 31.8883C58.9371 32.4226 58.7793 32.7127 58.3013 32.9339C58.2328 32.9656 58.162 32.9952 58.0907 33.0251C57.7417 33.1712 57.3802 33.3225 57.2107 33.7487C57.6887 33.5467 58.1714 33.3451 58.6633 33.1403C58.7793 34.2114 58.7793 34.2208 57.995 34.5703C57.5472 34.7697 57.0973 34.9631 56.6482 35.1562C56.4223 35.2533 56.1967 35.3503 55.9715 35.4479C55.9854 35.4823 55.9982 35.5168 56.011 35.5512C56.0237 35.5857 56.0365 35.6202 56.0504 35.6546C56.239 35.5991 56.4275 35.5436 56.6178 35.4877C57.2237 35.3094 57.8469 35.1261 58.5427 34.9223C58.5086 35.0882 58.4808 35.2438 58.4544 35.3918C58.4014 35.6881 58.354 35.9535 58.2735 36.2078C58.1089 36.716 57.9474 37.2255 57.7858 37.7349C57.3188 39.2078 56.8517 40.681 56.3103 42.126C54.7788 46.1894 52.3515 49.6184 48.6851 52.142C47.998 52.6153 47.3327 53.1215 46.6622 53.6315C46.3546 53.8656 46.0458 54.1005 45.7334 54.3334C46.1461 54.5704 46.4655 54.3496 46.7483 54.154C46.7612 54.145 46.7741 54.1361 46.7869 54.1273C47.548 53.6125 48.2952 53.075 49.0285 52.5242C52.63 49.8245 55.3125 46.4147 57.1039 42.3478C57.513 41.4189 57.8366 40.4524 58.1598 39.4869C58.2693 39.1598 58.3788 38.8327 58.4916 38.5073C59.4569 35.7366 59.9953 32.9016 59.9999 29.9589C60.0046 27.0916 59.4987 24.3296 58.5427 21.6302L58.5268 21.5845C58.3597 21.1035 58.1847 20.5998 58.1667 20.1009C58.0553 17.3606 56.663 15.2337 54.8066 13.3479C54.2822 12.8131 53.8552 12.2638 53.6464 11.5643C53.0013 9.39016 51.5904 7.80079 49.7015 6.57097C49.3397 6.33477 48.9731 6.10435 48.6066 5.87392C48.1643 5.59592 47.7221 5.31791 47.2881 5.02972L47.2527 5.00613C46.9787 4.82365 46.6779 4.62328 46.5177 4.35784C45.9422 3.39541 45.014 2.85154 44.0765 2.33129C42.5311 1.46918 40.9578 0.624786 39.0689 0.911247C38.4052 1.01112 37.774 0.904438 37.1243 0.774147C34.6645 0.28022 32.1862 -0.107475 29.6615 0.0269012C26.7655 0.180798 23.9205 0.602089 21.0988 1.28124C19.435 1.68207 17.9851 2.48448 16.5331 3.28805C16.1827 3.48196 15.8322 3.67595 15.4785 3.86436C15.085 4.07354 14.7283 4.34423 14.3708 4.61559C14.1463 4.78593 13.9215 4.95653 13.687 5.11235C11.4733 6.58822 9.50083 8.33421 7.72332 10.2831C5.80657 12.3773 4.159 14.6567 3.06836 17.2753C2.12159 19.5488 1.31405 21.8709 0.794249 24.2787C0.269812 26.7234 -0.171086 29.1889 0.065607 31.6927C0.525069 36.5902 1.89417 41.251 4.10795 45.6683C5.36103 48.1625 6.93434 50.4536 8.94855 52.4057C10.1784 53.5947 11.4826 54.7678 12.9352 55.6644C16.0633 57.5961 19.5348 58.7311 23.1919 59.3207C25.6702 59.7208 28.1578 60.0508 30.6732 59.9935C35.7088 59.8795 40.2941 58.3569 44.4571 55.5981C44.5663 55.5239 44.663 55.4301 44.7597 55.3361C44.8068 55.2903 44.854 55.2444 44.9026 55.2009C44.4957 55.2116 44.1673 55.3501 43.8391 55.4884C43.793 55.5078 43.7469 55.5273 43.7006 55.5463C43.5684 55.6008 43.443 55.6749 43.3162 55.7497C43.0645 55.8983 42.8072 56.0503 42.48 56.0593C42.4952 55.9216 42.5108 55.792 42.5258 55.6682C42.561 55.3763 42.5923 55.1162 42.6053 54.8554C42.6214 54.6012 42.6174 54.3461 42.6135 54.0909C42.6117 53.9774 42.61 53.8639 42.61 53.7505C42.3964 54.3358 42.3008 54.9308 42.2054 55.5246C42.1888 55.6276 42.1723 55.7305 42.1552 55.8333C42.1527 55.8499 42.1502 55.8671 42.1476 55.8846C42.117 56.0943 42.0787 56.3563 41.9417 56.4489C41.8957 56.4801 41.8497 56.5116 41.8036 56.5431C41.2456 56.9245 40.6759 57.3139 39.9043 57.3704C40.8046 54.7941 41.0831 52.9606 40.8603 50.8368C40.7164 51.2899 40.6143 51.7516 40.5633 52.2183C40.3823 53.7982 40.1038 55.3566 39.5747 56.8616C39.2035 57.912 38.9064 58.095 37.6905 58.1485C37.7317 58.0601 37.7747 57.9744 37.817 57.89C37.9128 57.6989 38.0052 57.5145 38.0664 57.3206C38.1299 57.1253 38.1937 56.9301 38.2575 56.7349C38.6274 55.6034 38.9975 54.4713 39.3102 53.3238C39.3218 53.279 39.3364 53.2313 39.3517 53.1815C39.4463 52.8725 39.5649 52.4854 39.1292 52.2378C39.0085 52.6717 38.8879 53.1059 38.7718 53.5393C38.5259 55.1264 37.8947 56.5805 37.1707 58.001C37.0082 58.3179 36.8272 58.6674 36.2982 58.617V57.8458C36.1175 57.9483 36.0247 58.1227 35.9311 58.2988C35.789 58.566 35.6449 58.8369 35.189 58.8653C35.4485 58.2047 35.6868 57.5967 35.9199 57.0019C35.9953 56.8095 36.0701 56.6185 36.145 56.4275C35.783 56.5573 35.6113 56.7776 35.4581 57.0113C35.3157 57.2245 35.179 57.4409 35.0425 57.6569C34.8544 57.9547 34.6667 58.2517 34.465 58.539C34.3164 58.7483 34.1122 58.9444 33.8848 59.0696C33.5832 59.2404 32.4693 59.174 31.801 58.9834C34.2143 56.9359 35.2168 54.1876 35.9408 51.2777L35.9726 51.3014C36.5309 51.7183 36.5468 51.7302 36.442 52.0998C36.3285 52.5018 36.2039 52.9007 36.0793 53.2996C35.9901 53.5855 35.9008 53.8714 35.8155 54.1585C35.7878 54.2594 35.7733 54.3643 35.7543 54.5021C35.7415 54.5951 35.7266 54.7031 35.7041 54.835C36.0851 54.3372 36.2648 53.7937 36.447 53.2425C36.6422 52.6524 36.8402 52.0535 37.2914 51.4925C37.3359 52.2998 37.0943 52.9683 36.8646 53.604C36.6633 54.1611 36.4711 54.6931 36.4885 55.2713C37.0802 54.5742 37.2769 53.7348 37.4763 52.8842C37.5755 52.4606 37.6754 52.0343 37.8251 51.6214C38.487 51.6335 38.9176 51.2536 39.3602 50.8631C39.5568 50.6896 39.7558 50.514 39.9785 50.3697C40.0115 50.5174 40.0403 50.6501 40.0674 50.7749C40.0975 50.9136 40.1256 51.0426 40.1549 51.1718C40.1317 49.9179 40.4705 48.7899 41.1991 47.7566C41.2966 48.1806 41.3012 48.5923 41.2966 49.0037C41.2919 50.2118 41.8953 50.8872 43.1066 50.7991C43.8538 50.7452 44.6103 50.4955 45.3203 50.2263C45.8328 50.0311 46.3209 49.7749 46.8061 49.5203C47.0239 49.406 47.2412 49.292 47.4599 49.1839C48.0121 49.8626 48.0539 50.1032 47.5341 50.6538C47.2591 50.947 46.9357 51.1992 46.5738 51.4814C46.3983 51.6183 46.2137 51.7623 46.0211 51.9214C46.9725 51.7152 47.5527 51.2681 48.0029 50.6212C48.3996 50.0472 48.1861 49.4785 47.9819 48.9341C47.9687 48.899 47.9555 48.8639 47.9425 48.8289C48.2919 48.5458 48.6351 48.2681 48.9741 47.9938C49.6076 47.4811 50.2264 46.9804 50.8432 46.479C50.8664 46.4569 50.8989 46.4106 50.8942 46.387C50.8885 46.3693 50.8669 46.3565 50.8306 46.335C50.808 46.3215 50.7796 46.3047 50.7457 46.2811C50.6453 46.345 50.5418 46.4093 50.4366 46.4745C50.2017 46.6203 49.9588 46.7711 49.7247 46.9335C49.4618 47.1153 49.2026 47.3019 48.9433 47.4885C48.6121 47.7268 48.281 47.9651 47.9425 48.1933C47.9291 48.2023 47.9154 48.2114 47.9016 48.2206C47.6908 48.3613 47.4368 48.5309 47.2278 48.5074C46.495 48.4262 45.8979 48.7201 45.2987 49.0151C45.2148 49.0563 45.1309 49.0977 45.0465 49.138C44.4014 49.4444 43.7238 49.5485 43.0184 49.4435C42.7214 49.3995 42.4058 49.3378 42.3269 48.9337C42.8624 48.2671 43.5852 47.8482 44.3145 47.4254C44.4131 47.3683 44.5118 47.311 44.6103 47.2531C45.5338 46.7089 46.4528 46.1518 47.3021 45.5062C47.7754 45.1471 48.1699 44.6387 48.4623 44.123C48.9171 43.3239 48.6712 42.8955 47.7662 42.6539C47.6954 42.6355 47.6284 42.6111 47.527 42.5743C47.4689 42.5532 47.3994 42.5279 47.3113 42.4973C47.672 42.3302 47.9937 42.1805 48.3004 42.0378C48.6371 41.8811 48.9558 41.7329 49.2884 41.5789C49.3683 41.8715 49.4481 42.157 49.5297 42.4487C49.5904 42.6657 49.6521 42.8861 49.7154 43.1155C49.7658 43.0958 49.8194 43.0808 49.8713 43.0663C49.9819 43.0354 50.0842 43.0067 50.1285 42.94C50.3037 42.6886 50.2033 42.4804 50.0895 42.2445C49.9864 42.0305 49.8722 41.7937 49.9428 41.4812C50.0044 41.4303 50.0749 41.3684 50.1527 41.2999C50.3449 41.131 50.5823 40.9223 50.8432 40.7417C51.1843 40.503 51.5338 40.2739 51.8833 40.0446C52.3992 39.7063 52.9153 39.3679 53.405 38.9985C53.8552 38.6598 54.2543 38.2262 54.5838 37.7699C54.7927 37.4804 54.8994 37.0759 54.9226 36.7144C54.9598 36.0518 54.4864 35.6694 53.8088 35.7503C53.2008 35.8225 52.6996 36.1289 52.3376 36.5765C52.015 36.9739 51.7271 37.398 51.4391 37.8222C51.2795 38.0572 51.12 38.2922 50.9546 38.5227C50.8485 38.6704 50.7429 38.8185 50.6374 38.9665C50.1934 39.5892 49.7498 40.2113 49.2699 40.8066C49.0285 41.1031 48.7083 41.386 48.1978 41.4472C48.2426 41.2337 48.3013 41.0272 48.3583 40.8266C48.4786 40.4035 48.5914 40.0066 48.5505 39.6259C48.506 39.2246 48.3089 38.839 48.1101 38.4501C48.0188 38.2715 47.9271 38.0921 47.8497 37.9102C47.9431 37.8595 48.0379 37.8108 48.1326 37.7621C48.3437 37.6536 48.5546 37.5452 48.7501 37.4146C49.9335 36.6309 50.4905 35.5201 50.4394 34.1364C50.4023 33.0681 50.1052 32.7927 48.9868 32.647C48.9356 32.6398 48.8883 32.6092 48.8284 32.5705C48.796 32.5496 48.7599 32.5262 48.7176 32.503C48.9231 32.3367 49.1231 32.1777 49.3184 32.0224C49.7186 31.7043 50.0992 31.4017 50.4673 31.0839C52.5882 29.2489 54.5003 27.2386 55.953 24.8412C56.029 24.7113 56.077 24.5629 56.1249 24.4146C56.1471 24.3459 56.1693 24.2771 56.1943 24.2103C55.6662 24.745 55.217 25.3146 54.7713 25.8799C54.606 26.0896 54.4411 26.2987 54.2729 26.5052C52.7738 28.3414 51.0474 29.9571 49.2467 31.5051C49.1715 31.5692 49.0912 31.6323 49.0103 31.6957C48.7468 31.9026 48.4774 32.1141 48.3602 32.3842C48.0754 33.0584 47.5789 33.0632 46.9424 33.0693C46.8736 33.07 46.8032 33.0707 46.7312 33.0722C46.8084 32.9342 46.8835 32.8062 46.9549 32.6843C47.1154 32.4105 47.2579 32.1674 47.367 31.9101C47.4402 31.7335 47.5141 31.5569 47.588 31.3803C47.9361 30.5486 48.285 29.7148 48.5644 28.8603C48.8336 28.024 48.5412 27.6509 47.6269 27.4134C47.5571 27.3955 47.4895 27.3739 47.4137 27.3497C47.3786 27.3385 47.3417 27.3267 47.3021 27.3145C47.3021 27.0781 47.3026 26.8447 47.3031 26.6133C47.3041 26.1563 47.3051 25.707 47.3021 25.2579C47.2835 23.3427 46.7869 21.6084 45.3343 20.2302C45.2813 20.1827 45.2534 20.1131 45.2254 20.043C45.2117 20.0087 45.1979 19.9743 45.1811 19.9423C45.1778 19.9416 45.1745 19.9408 45.1712 19.94C45.2202 19.8553 45.2762 19.7719 45.3322 19.6884C45.4619 19.4952 45.5918 19.3017 45.6359 19.0917C45.6868 18.8454 45.7393 18.5991 45.792 18.3526C46.0228 17.271 46.2544 16.1861 46.3414 15.0921C46.5317 12.7487 46.2532 10.4189 45.7334 8.12584C45.5581 7.35516 45.3461 6.59245 45.1313 5.81923C45.0218 5.42553 44.9117 5.0291 44.8052 4.6275C45.5472 5.28505 46.2682 5.92123 46.9202 6.49651L47.019 6.58368C47.6455 10.3108 47.3021 13.9799 46.889 17.6489C47.6548 14.0988 48.1328 10.5342 47.5944 6.83382C47.692 6.90278 47.7848 6.96808 47.8742 7.03102C48.0485 7.15372 48.21 7.26745 48.3695 7.38177C48.4866 7.465 48.6038 7.54865 48.7199 7.63158C48.8476 7.72279 48.9742 7.81314 49.0981 7.90112C49.1389 8.34934 49.1796 8.76565 49.2203 9.18199L49.2235 9.21447L49.4091 9.22446C49.4636 9.03196 49.5163 8.83929 49.5706 8.64108C49.6041 8.51862 49.6382 8.39406 49.6736 8.26612C51.2145 9.3602 51.2748 9.43011 51.233 11.0731C51.1588 14.0321 50.6111 16.9153 49.7061 19.7368C49.6585 19.887 49.6391 20.0459 49.6198 20.2046C49.6108 20.2781 49.6018 20.3515 49.5901 20.424C50.3419 18.9145 50.8989 17.3552 51.1913 15.7236C51.3944 14.6015 51.5628 13.4744 51.738 12.3015C51.819 11.7593 51.9015 11.2075 51.9895 10.6418C52.0626 10.7407 52.1271 10.8259 52.1854 10.9026C52.2935 11.0453 52.3798 11.159 52.4583 11.2792C52.8574 11.917 53.2101 12.5144 53.0987 13.3665C52.4815 18.116 51.2284 22.6144 48.0632 26.4165C47.9632 26.5354 47.8928 26.6762 47.8108 26.8404C47.7673 26.9276 47.7204 27.0214 47.6641 27.1221C47.743 27.1049 47.8039 27.0954 47.8513 27.088C47.9266 27.0763 47.968 27.0699 47.9936 27.0462C48.0076 27.0321 48.0216 27.018 48.0356 27.0039C48.2355 26.8026 48.4377 26.5991 48.6155 26.3812C51.2237 23.2409 52.7785 19.6187 53.7253 15.7177C53.7448 15.638 53.761 15.5575 53.7775 15.4755C53.8396 15.1673 53.9059 14.8384 54.1662 14.4565C54.3093 14.7414 54.4787 14.9913 54.6413 15.2311C54.9477 15.6832 55.2297 16.0993 55.2661 16.6456L55.2707 16.6415C55.3094 16.6822 55.3502 16.7219 55.3911 16.7618C55.4582 16.8272 55.5258 16.8932 55.5863 16.9648C56.2221 17.7234 56.3706 18.4788 55.939 19.4543C55.0155 21.5399 54.0594 23.5914 52.6485 25.4133C52.1827 26.0145 51.7324 26.6281 51.2822 27.2414ZM45.1633 19.9381C44.2854 19.7296 44.2801 19.7313 43.4964 19.9891C43.4576 19.9641 43.4179 19.9384 43.3774 19.9123C43.2387 19.8227 43.0914 19.7275 42.9441 19.6336C42.7863 19.5334 42.6285 19.4348 42.4707 19.3367C42.8513 16.0718 42.2851 12.9294 41.6168 9.79829C41.4451 8.98748 41.2548 8.17896 41.0274 7.38086C40.554 5.68798 39.7557 4.15219 38.6326 2.78027C38.5061 2.62492 38.3752 2.47274 38.2018 2.2711C38.1208 2.17692 38.0306 2.07196 37.9272 1.95086C38.0997 1.96964 38.2477 1.98178 38.3792 1.99257C38.6225 2.01254 38.8092 2.02785 38.99 2.07207C40.4473 2.43253 41.8721 2.88786 43.1947 3.61695C43.5846 3.83213 43.8352 4.10815 44.0394 4.49448C44.9491 6.23412 45.2971 8.12448 45.622 10.0194C45.803 11.0953 45.9376 12.1821 46.0304 13.2689C46.1697 14.8983 45.8912 16.4981 45.557 18.0879C45.4288 18.7047 45.2961 19.3214 45.1633 19.9381ZM32.3533 50.9571C29.9632 54.1105 27.2992 56.7089 23.6838 58.306C24.3696 58.5019 25.0495 58.6355 25.7258 58.7683L25.726 58.7683C25.8963 58.8018 26.0665 58.8352 26.2364 58.8696C26.7562 58.9744 27.2064 58.8735 27.6658 58.6115C28.9839 57.8648 30.1302 56.931 31.1188 55.8047C31.4925 55.3773 31.8633 54.9457 32.2335 54.5148L32.5157 54.1864C32.409 54.9281 31.9727 55.4791 31.5318 56.0217L31.4177 56.1623L31.4177 56.1624C31.0244 56.6472 30.6307 57.1326 30.1906 57.5784C29.8589 57.9179 29.4994 58.2324 29.1002 58.5815L29.1002 58.5816L29.1 58.5817C28.9127 58.7455 28.7166 58.9171 28.5105 59.1024C28.6925 59.1186 28.852 59.1298 28.9963 59.1398C29.2716 59.159 29.4917 59.1744 29.7079 59.214C30.5526 59.3716 31.1373 59.037 31.7407 58.4622C33.7785 56.5284 34.6425 54.0203 35.5081 51.5076C35.5532 51.3765 35.5984 51.2453 35.6438 51.1142C35.7459 50.8205 35.6856 50.5173 35.2818 50.3398C34.516 51.3139 33.4718 51.3144 32.3533 50.9571ZM46.6959 43.5204C47.1194 43.3053 47.5525 43.0853 48.156 43.2563C48.2349 43.9408 47.91 44.3744 47.4923 44.6972C46.773 45.2533 46.0351 45.7995 45.2414 46.2448C44.51 46.6559 43.7495 47.0185 42.9801 47.3854L42.9799 47.3854L42.9799 47.3855C42.6411 47.547 42.3007 47.7093 41.9602 47.877C41.8588 47.4491 42.0689 47.097 42.2763 46.7494C42.3156 46.6835 42.3549 46.6178 42.3918 46.5518C42.8792 45.6805 43.4732 44.957 44.5174 44.6206C44.9891 44.4691 45.4268 44.219 45.8646 43.9689C46.0946 43.8375 46.3246 43.7061 46.5595 43.589C46.605 43.5665 46.6504 43.5435 46.6959 43.5204ZM42.299 45.5117C41.8484 45.833 41.6598 45.9674 41.5936 46.147C41.5459 46.2763 41.5618 46.4289 41.589 46.6915C41.799 46.3434 41.9828 46.0377 42.1611 45.7411L42.1612 45.741L42.299 45.5117ZM34.4696 35.5029C34.5047 35.3406 34.5609 35.1789 34.6179 35.0147C34.8095 34.4629 35.0111 33.8822 34.4603 33.1536C34.3211 34.0825 34.284 34.7911 34.4696 35.5029ZM44.5292 39.2477C44.6376 39.1767 44.7549 39.1 44.8841 39.0134C44.9351 40.7187 44.3272 41.1471 42.9534 40.4649C43.0746 40.3652 43.1912 40.2668 43.3056 40.1702L43.3057 40.1701L43.3059 40.1699L43.3061 40.1697L43.3062 40.1697L43.3062 40.1697L43.3062 40.1696L43.3063 40.1696L43.3063 40.1696L43.3063 40.1696L43.3064 40.1695L43.3064 40.1695L43.3064 40.1695C43.5159 39.9926 43.7181 39.8219 43.928 39.6609C44.1079 39.5232 44.2986 39.3985 44.5292 39.2477ZM50.9546 39.7212C51.0031 39.7734 51.0558 39.826 51.1088 39.8788L51.117 39.887C52.1009 39.3344 53.0569 38.7398 53.8366 37.9194C54.0873 37.6543 54.2775 37.3028 54.3982 36.9588C54.4585 36.7962 54.3564 36.5125 54.2218 36.3727C54.1383 36.28 53.8181 36.2677 53.7021 36.3524L53.6327 36.4028L53.5384 36.471C53.1324 36.7643 52.7161 37.065 52.4258 37.4481C52.0328 37.9566 51.6985 38.5065 51.3645 39.056L51.3645 39.0561L51.3643 39.0563L51.3642 39.0564L51.3641 39.0566L51.3641 39.0567L51.364 39.0568L51.3639 39.0569L51.3638 39.0571L51.3637 39.0572L51.3637 39.0573L51.3636 39.0574L51.3635 39.0576C51.2284 39.2798 51.0934 39.5019 50.9546 39.7212ZM43.631 43.9941C42.8513 44.6136 42.3872 44.6151 41.4172 43.777L42.5732 42.971C43.318 42.4517 44.0545 41.9383 44.8377 41.3909L45.0029 41.5415L45.0032 41.5418C45.3088 41.8202 45.6381 42.1202 46.0304 42.4764C45.9297 42.5286 45.8368 42.5739 45.75 42.6162L45.7499 42.6163C45.5847 42.6968 45.4419 42.7664 45.3111 42.8518C45.1863 42.9334 45.0606 43.0141 44.9348 43.0948L44.9348 43.0948C44.4898 43.3805 44.0435 43.6671 43.631 43.9941ZM45.9515 36.8343C47.1071 37.6951 47.5712 37.7178 48.6016 36.9434C48.8429 36.7627 49.0842 36.5474 49.2327 36.2956L49.2609 36.2474C49.6054 35.6581 49.9615 35.049 49.6272 34.2376C48.6957 34.6461 47.9458 35.2601 47.2018 35.8693L47.2018 35.8694C46.793 36.2041 46.386 36.5374 45.9515 36.8343ZM45.3661 41.1414C45.3042 41.0957 45.2441 41.0514 45.1904 41.0065C45.2677 40.6402 45.3397 40.2962 45.4118 39.9516L45.4127 39.9472C45.5047 39.5074 45.597 39.0664 45.7009 38.5767C45.9979 38.4669 46.4574 38.2975 46.8983 38.136C48.0168 38.826 48.2488 39.383 47.8729 40.4865C47.7894 40.7354 47.6826 40.981 47.548 41.208C47.0282 42.0955 46.5409 42.5181 45.7659 41.4998C45.6593 41.3575 45.5079 41.2458 45.3661 41.1414ZM42.2248 41.4055C42.1949 41.3243 42.1543 41.2428 42.1146 41.1628C42.0309 40.9946 41.9505 40.8328 41.9788 40.694C42.2897 39.289 43.1205 38.5385 44.5778 38.3702C45.195 38.2984 45.7148 38.0679 46.2857 37.7673C45.6777 37.2612 45.1625 37.2426 44.5267 37.5648C43.9373 37.8648 43.2969 38.1814 42.5961 37.7382C42.4754 37.6634 42.2108 37.7224 42.0577 37.8014C41.629 38.0224 41.2096 38.2599 40.7646 38.5119L40.7644 38.512L40.7642 38.5122C40.5831 38.6147 40.3978 38.7197 40.2059 38.8269L40.3972 39.0419C40.6082 39.279 40.7792 39.4712 40.9671 39.6818C41.1252 39.452 41.2554 39.267 41.3953 39.0682L41.5472 38.8522C42.0206 39.6272 41.8581 40.3409 41.6122 40.9914C41.4307 41.4659 41.4837 41.8802 41.5521 42.4145C41.5659 42.5224 41.5803 42.6351 41.5936 42.7543L42.3715 42.2918C42.8762 41.9919 43.3449 41.7133 43.8491 41.4127C43.2644 41.1802 43.0191 41.0827 42.7955 41.1188C42.6339 41.1449 42.4836 41.2406 42.2248 41.4055ZM25.451 39.2605C26.0877 38.8877 26.1309 38.3206 26.1749 37.7432C26.1989 37.429 26.223 37.1118 26.3431 36.8212C24.9508 35.9968 23.6142 35.205 22.2822 34.4128C22.635 34.3471 22.8995 34.4524 23.1501 34.5813C23.6062 34.8139 24.0465 35.0766 24.4868 35.3393C25.516 35.9534 26.5453 36.5675 27.7772 36.798C28.0988 36.8588 28.4007 37.0214 28.7024 37.184L28.7024 37.184L28.7025 37.184L28.7025 37.1841L28.7026 37.1841L28.7027 37.1841C28.8407 37.2585 28.9787 37.3328 29.1185 37.3974C29.6151 36.2896 29.3181 35.5469 28.3109 34.9975C27.9075 34.7766 27.5386 34.4906 27.172 34.2064C27.0537 34.1146 26.9355 34.023 26.8165 33.9338C26.6146 33.7839 26.4195 33.6244 26.2249 33.4653C26.1422 33.3976 26.0595 33.3301 25.9765 33.2634C26.7699 33.5567 27.4527 34.0148 28.1472 34.4807L28.1472 34.4808L28.1473 34.4808L28.1475 34.4809L28.1477 34.4811C28.428 34.6691 28.7102 34.8585 29.0025 35.0388C29.0965 34.6008 28.9133 34.3547 28.7342 34.1141C28.6923 34.0577 28.6505 34.0016 28.6126 33.9434C28.2599 33.4024 28.3017 33.1559 28.7611 32.642C28.8272 32.5694 28.899 32.5027 28.9705 32.4364L28.9705 32.4364L28.9705 32.4364L28.9705 32.4364L28.9706 32.4363L28.9707 32.4362L28.9708 32.4361L28.9709 32.436C29.0097 32.4 29.0484 32.3641 29.0859 32.3275C29.6699 32.6293 30.0525 32.3249 30.4906 31.9762C30.5866 31.8998 30.6852 31.8213 30.7893 31.7466C30.7287 31.6238 30.6718 31.4973 30.6147 31.3702L30.6147 31.3702L30.6147 31.3701L30.6147 31.3701L30.6147 31.3701C30.4925 31.0981 30.3689 30.8232 30.2045 30.5744C29.903 30.1205 29.5798 29.6798 29.2564 29.2388L29.2563 29.2388L29.2563 29.2387L29.2563 29.2387L29.2562 29.2386C29.0619 28.9736 28.8674 28.7085 28.6776 28.4404C28.6105 28.345 28.5676 28.2333 28.5246 28.1215L28.5246 28.1215C28.5052 28.071 28.4858 28.0204 28.4641 27.9713C28.4827 27.9623 28.5024 27.9533 28.5221 27.9444L28.5597 27.9272L28.5801 27.9174C29.1742 28.622 29.7636 29.326 30.353 30.0311C30.1766 28.6802 29.5594 27.5665 28.7101 26.5777C27.9257 25.6679 27.3874 24.6311 26.9697 23.5297C26.617 22.6082 26.7655 22.1197 27.6241 21.6153C27.9764 21.4059 28.384 21.2787 28.7892 21.1522L28.7893 21.1522L28.7894 21.1522C28.8965 21.1187 29.0035 21.0853 29.1092 21.0505C29.2699 20.9974 29.4388 20.9707 29.6502 20.9374C29.7563 20.9207 29.8731 20.9022 30.0049 20.8779C28.7147 18.0016 27.4709 15.2174 26.2271 12.4332C26.3014 12.4005 26.3756 12.3682 26.4545 12.336C27.7958 15.1607 29.1417 17.9857 30.5154 20.8671C30.6783 20.8433 30.8411 20.8183 31.004 20.7932C32.1272 20.6207 33.2535 20.4476 34.4046 20.6533C34.8966 20.7414 35.4025 20.8285 35.8944 20.8078C37.1475 20.7551 38.2474 21.0741 39.2313 21.8382C39.4169 21.9803 39.7465 22.106 39.9367 22.0393C40.4937 21.8435 40.8232 22.1138 41.162 22.4421C41.7282 22.9927 41.9927 23.6886 42.2341 24.4181C42.2666 24.5199 42.2813 24.6317 42.2961 24.7445C42.3334 25.0295 42.3717 25.3215 42.7019 25.4777C42.6449 25.1812 42.5866 24.8847 42.5282 24.5883L42.5281 24.5877C42.4362 24.1202 42.3442 23.6525 42.2573 23.1838C42.0855 22.2576 41.9138 21.3307 41.77 20.3995C41.7375 20.1912 41.7839 19.9379 41.8813 19.7503C42.5496 18.4774 42.4986 17.0996 42.3408 15.769C42.1459 14.1292 41.7932 12.4981 41.3847 10.8928C40.8603 8.80862 40.3219 6.7117 39.1246 4.8622C38.9114 4.53096 38.6864 4.20639 38.4614 3.88179L38.4614 3.88176L38.4614 3.88172L38.4613 3.88169L38.4612 3.88142C38.1228 3.39336 37.7845 2.90525 37.4863 2.39439C36.9108 1.40881 36.029 1.35342 34.9894 1.40063C35.0195 1.46599 35.0415 1.52314 35.0608 1.57329C35.0921 1.65448 35.1163 1.71733 35.1565 1.76699C36.3353 3.19566 37.1196 4.82771 37.8111 6.51786C38.7533 8.83677 39.4726 11.2224 40.0388 13.6507C40.5494 15.8239 40.9578 18.0134 40.735 20.2642C40.7316 20.2998 40.7293 20.3359 40.7271 20.3718V20.3719C40.7145 20.5779 40.7022 20.7773 40.4612 20.8349C40.425 20.3635 40.3963 19.8939 40.3677 19.4263L40.3677 19.4261L40.3677 19.426L40.3677 19.4259L40.3677 19.4258L40.3676 19.4257L40.3676 19.4256L40.3676 19.4255L40.3676 19.4254C40.301 18.3354 40.2351 17.2559 40.076 16.1894C39.5283 12.4323 38.4098 8.82224 36.7066 5.41197C36.2328 4.46397 35.6372 3.57434 35.0417 2.68502C34.8322 2.3721 34.6227 2.05922 34.4186 1.74384C34.284 1.53047 34.0751 1.33254 33.857 1.20452C33.5646 1.03746 32.3719 1.09783 31.8892 1.24038C36.2935 6.43977 38.4841 17.5704 37.8065 20.3905C37.684 19.6342 37.5894 18.8735 37.4949 18.1132L37.4948 18.1131L37.4948 18.113L37.4948 18.1129L37.4948 18.1128C37.3779 17.1731 37.2611 16.2338 37.0918 15.3037C36.8023 13.7282 36.3884 12.1734 35.9756 10.6224L35.9755 10.6222L35.9037 10.3521C35.4535 8.66653 34.7759 7.05945 33.9359 5.52773C33.3522 4.47004 32.7483 3.42374 32.1554 2.39645C31.8951 1.94532 31.6368 1.49786 31.3833 1.0547C29.7172 0.977528 29.383 1.04744 28.2135 1.73975C27.7308 2.02485 27.2203 2.11429 26.6634 2.08932C26.5506 2.08432 26.4368 2.06867 26.3219 2.05287C26.0298 2.01273 25.7306 1.9716 25.4242 2.10157C25.5019 2.27421 25.5743 2.43376 25.651 2.60288L25.6511 2.60308C25.7348 2.78746 25.8236 2.98322 25.9301 3.21972C25.6448 3.08273 25.4533 2.82208 25.2703 2.57299C24.9355 2.11712 24.629 1.69997 23.8277 2.1506C23.9716 2.381 24.1144 2.60435 24.2548 2.82399C24.5128 3.22755 24.7628 3.61859 24.9972 4.01781C25.3639 4.63885 25.7073 5.27351 26.0415 5.9118C26.0887 6.00296 26.1361 6.09412 26.1835 6.18531L26.1836 6.18534L26.1836 6.18538L26.1836 6.18541L26.1836 6.18544C26.4856 6.76626 26.7885 7.34864 27.0532 7.94697C27.1132 8.08463 27.181 8.22025 27.2503 8.35881C27.4919 8.84219 27.7514 9.36132 27.7587 10.127C27.5503 9.71717 27.3459 9.31121 27.1435 8.9093L27.1434 8.90925C25.9166 6.47318 24.7647 4.18574 23.2708 2.09431C21.9156 2.10475 20.9549 2.75348 20.0499 3.51843C20.1077 3.64308 20.1635 3.76263 20.2178 3.87901C20.3074 4.07118 20.3931 4.25468 20.4769 4.43819L20.4482 4.45149L20.4049 4.47113C20.3805 4.48213 20.3562 4.49313 20.333 4.50402C20.2169 4.37807 20.1019 4.25223 19.9827 4.12193L19.9821 4.12125C19.8442 3.97041 19.7008 3.81359 19.544 3.64373C19.2991 3.73346 19.0597 3.83022 18.8225 3.92604L18.8225 3.92606L18.8225 3.92607L18.8224 3.92608L18.8224 3.92609C18.3001 4.13716 17.789 4.34367 17.256 4.46043C16.2071 4.69106 15.4924 5.3071 14.8612 6.08068C14.8287 6.11064 14.7963 6.14015 14.7684 6.17011C14.3257 6.62172 14.5954 7.01338 14.8469 7.37845L14.8469 7.37853C14.8722 7.41528 14.8974 7.45176 14.9216 7.488C16.0725 9.23218 17.2374 10.9682 18.4116 12.6969C19.7898 14.7218 21.1706 16.745 22.5513 18.768L22.5545 18.7727L22.5551 18.7736L22.5557 18.7745L22.5563 18.7754C23.8101 20.6125 25.0637 22.4495 26.3153 24.2874C26.3903 24.3992 26.4526 24.5199 26.5151 24.6408C26.5454 24.6995 26.5758 24.7583 26.6077 24.8162C26.5427 24.8572 26.4777 24.8976 26.4128 24.9379C26.1525 24.5927 25.8905 24.2489 25.6285 23.9051L25.6283 23.9048L25.6281 23.9045L25.6279 23.9043L25.6277 23.904C25.0442 23.1383 24.4608 22.3727 23.8973 21.5935C22.22 19.2732 20.5463 16.9503 18.8725 14.6272L18.87 14.6238C17.275 12.4102 15.6799 10.1964 14.0815 7.98465C13.921 7.75916 13.7316 7.5517 13.5625 7.36647L13.5624 7.36636L13.5624 7.36634C13.4871 7.28387 13.4158 7.20581 13.3529 7.13254C11.826 7.4249 11.0741 8.38824 10.4522 9.49321C10.4959 9.55171 10.531 9.60253 10.5624 9.64789L10.5624 9.64795C10.6077 9.71345 10.6451 9.76756 10.6889 9.8169C11.3888 10.5942 12.0916 11.369 12.7943 12.1437L12.7946 12.1442L12.7954 12.145L12.7955 12.1451L12.7956 12.1452L12.7957 12.1453L12.7957 12.1454C14.2965 13.8001 15.7972 15.4547 17.2699 17.1327C20.2355 20.5144 23.1687 23.9269 26.0972 27.3398C26.942 28.3255 27.7548 29.3378 28.5675 30.35L28.5676 30.3501C28.7326 30.5556 28.8975 30.7611 29.0628 30.9663C29.1643 31.0904 29.2333 31.2386 29.3023 31.387L29.3023 31.387L29.3024 31.387L29.3024 31.3871L29.3024 31.3871C29.3344 31.4558 29.3663 31.5245 29.4016 31.5909C28.6925 31.3168 28.2803 30.786 27.8708 30.2587L27.8707 30.2586C27.7147 30.0577 27.559 29.8572 27.3874 29.6716C26.9916 29.2396 26.6122 28.7914 26.2326 28.343L26.2325 28.3429C25.9711 28.0341 25.7096 27.7253 25.4428 27.4216C25.0501 26.9729 24.6483 26.5303 24.2465 26.0877L24.2465 26.0876L24.2464 26.0876L24.2463 26.0875L24.2463 26.0874L24.246 26.0872C24.0069 25.8238 23.7678 25.5604 23.5307 25.2957C22.867 24.5571 22.208 23.818 21.5536 23.0739C21.1182 22.5806 20.6871 22.0843 20.2559 21.5878L20.2558 21.5877L20.255 21.5867C20.0615 21.3639 19.868 21.141 19.674 20.9184L19.3596 20.5563C18.8145 19.9284 18.2689 19.3 17.7201 18.6744C17.0936 17.9562 16.467 17.2403 15.8312 16.528C15.5017 16.1576 15.1699 15.7893 14.8381 15.4209C14.5063 15.0525 14.1744 14.684 13.8448 14.3135C13.3629 13.7739 12.8862 13.2317 12.4088 12.6887C12.2565 12.5154 12.104 12.3419 11.9513 12.1685C11.5366 11.6937 11.1219 11.2176 10.6974 10.7302L9.97886 9.90543C9.70968 10.1211 9.51476 10.2754 9.31519 10.4302C9.57658 10.7383 9.69075 10.8729 9.75969 11.0276C9.81315 11.1476 9.83941 11.2797 9.88604 11.5143C9.54724 11.2392 9.23629 10.9868 8.86965 10.6913C8.77026 10.7985 8.67389 10.8993 8.58071 10.9968L8.58062 10.9969L8.58053 10.997C8.39096 11.1954 8.2146 11.3799 8.05283 11.5765C7.8347 11.8407 7.63514 12.1213 7.46342 12.4173C6.88793 13.4414 7.03644 14.4361 7.90432 15.2505C8.57975 15.8845 9.26224 16.512 9.94479 17.1397C10.5004 17.6505 11.056 18.1614 11.6079 18.6758C13.5617 20.4994 15.511 22.328 17.4602 24.1611C17.6209 24.3135 17.7631 24.4868 17.9047 24.6595L17.9047 24.6595L17.9048 24.6596L17.9048 24.6596L17.9048 24.6596L17.905 24.6598C17.9637 24.7313 18.0223 24.8028 18.0821 24.8726C16.7986 24.3437 15.8419 23.4509 14.8883 22.5609C14.5764 22.2698 14.2648 21.9791 13.9423 21.7015C12.6103 20.5538 11.3108 19.3717 10.016 18.1841C9.13596 17.3772 8.26673 16.5584 7.40683 15.7484L7.40618 15.7478L7.40569 15.7474C7.00527 15.3702 6.60687 14.9949 6.21034 14.6236C5.59772 14.7357 5.23572 15.0036 5.12434 15.4367C6.31398 16.5952 7.57111 17.6409 8.81855 18.6785L8.81859 18.6786L8.81868 18.6787L8.81874 18.6787L8.81883 18.6788L8.81888 18.6788C9.97538 19.6408 11.1236 20.5959 12.2019 21.6275C12.1548 21.6786 12.1117 21.7301 12.0688 21.7812L12.0687 21.7813L12.058 21.7941L12.0479 21.7859C9.65184 19.8697 7.25571 17.9534 4.7809 15.971C4.10795 17.0356 3.7181 18.1124 3.41643 19.2727C4.02462 19.7234 4.62659 20.1764 5.22647 20.6277L5.22728 20.6283L5.22809 20.6289L5.22862 20.6293C6.56895 21.6379 7.89884 22.6385 9.26414 23.5887C12.315 25.7111 15.3825 27.8102 18.45 29.9093L18.4502 29.9095C19.9696 30.9492 21.4889 31.9889 23.0062 33.0314C23.2094 33.1708 23.4006 33.326 23.5929 33.4821L23.5931 33.4823C23.6951 33.5651 23.7974 33.6481 23.902 33.7292L23.8988 33.7324C23.8673 33.7636 23.8361 33.7946 23.8091 33.8264C23.4774 33.6304 23.1424 33.4393 22.8076 33.2484L22.8074 33.2483L22.8073 33.2482L22.8073 33.2482C22.0788 32.8327 21.3509 32.4176 20.6579 31.9523C15.854 28.7247 11.0612 25.4771 6.26955 22.2302L4.56277 21.0737C4.21359 20.8374 3.87342 20.5869 3.52814 20.3326L3.52802 20.3325C3.3777 20.2218 3.22642 20.1104 3.073 19.9991C2.67851 20.4617 2.73884 20.9347 2.82702 21.4224L3.63387 21.9432C4.92679 22.7777 6.20598 23.6033 7.48198 24.4323C7.67492 24.5577 7.8599 24.6955 8.04494 24.8334C8.10471 24.8779 8.16449 24.9225 8.22455 24.9666C8.25239 24.9879 8.28952 25.031 8.28488 25.0574C8.28194 25.0746 8.26041 25.0885 8.2097 25.1214C8.18029 25.1405 8.14106 25.1659 8.08996 25.2021C6.36349 24.1145 4.59526 23.0012 2.81774 21.8827C2.70868 22.2017 2.59535 22.5293 2.4798 22.8633L2.47945 22.8643L2.47938 22.8645L2.47934 22.8646C2.35409 23.2267 2.22623 23.5963 2.09838 23.9705C2.68971 24.339 3.27388 24.7044 3.85361 25.0671L3.8619 25.0723L3.86311 25.073L3.86341 25.0732C5.02752 25.8015 6.17379 26.5186 7.32419 27.2263C8.56022 27.9854 9.7979 28.7414 11.0355 29.4973L11.0365 29.4979C12.7447 30.5413 14.4527 31.5846 16.1561 32.6356C16.2067 32.6667 16.2643 32.6931 16.3237 32.7203L16.3238 32.7204C16.5533 32.8256 16.8094 32.943 16.7873 33.3869C12.1894 31.2947 7.92928 28.7083 3.60873 26.0853L3.60732 26.0845L3.60543 26.0833L3.60268 26.0816L3.59895 26.0794C2.95974 25.6913 2.3192 25.3025 1.67605 24.9143C1.57858 26.1379 1.49505 27.2132 1.41615 28.2419C3.50461 29.5117 5.50026 30.727 7.4959 31.9445C7.52375 31.9623 7.54696 32.005 7.5516 32.039C7.55442 32.0506 7.54007 32.0647 7.51378 32.0905C7.49684 32.1071 7.47495 32.1287 7.44949 32.1575C5.47705 31.3127 3.59279 30.259 1.74102 29.1277C1.54146 29.5704 1.82456 29.7392 2.09374 29.8858C2.35834 30.0301 2.62205 30.1762 2.88577 30.3224C3.6628 30.753 4.43994 31.1837 5.24036 31.5659C7.28583 32.541 9.3391 33.5004 11.3926 34.4598L11.3934 34.4602C12.5079 34.9809 13.6225 35.5017 14.7359 36.025C14.8703 36.0877 14.9931 36.1727 15.1649 36.2915L15.1649 36.2916C15.2602 36.3575 15.3706 36.4338 15.5063 36.5226C15.3652 36.5226 15.2615 36.5271 15.1817 36.5306H15.1816H15.1816C15.0567 36.5361 14.9903 36.539 14.9308 36.518C10.4105 34.8868 6.01077 32.9761 1.6482 30.7434L1.6482 32.1054C1.82035 32.178 1.9887 32.2487 2.1544 32.3183L2.15453 32.3183C2.53824 32.4794 2.90772 32.6345 3.2772 32.7948C3.76915 33.0101 4.2611 33.2321 4.74841 33.4583L4.95664 33.5543C5.41145 33.764 5.86486 33.973 6.3078 34.2027C6.4042 34.2525 6.50301 34.2993 6.60201 34.3463C6.97963 34.5254 7.36014 34.7058 7.62121 35.0562C6.01244 34.6313 4.53954 33.9175 3.0632 33.202C2.61022 32.9824 2.15691 32.7627 1.69925 32.5512C1.52289 33.3419 1.52753 33.5494 1.78279 34.7565C8.70721 37.82 15.8358 40.4731 23.345 42.0795C16.6525 41.2021 10.3787 38.9115 4.09723 36.618L4.09721 36.618L4.09527 36.6173C3.56901 36.4252 3.04269 36.233 2.51607 36.0417C2.28402 36.8539 2.6553 37.183 3.28649 37.3788C6.11288 38.2589 8.93927 39.1469 11.7657 40.0363C11.8467 40.062 11.9306 40.0829 12.0156 40.1041C12.3297 40.1825 12.6603 40.2649 12.9306 40.6096C9.71368 39.8982 6.65889 38.9169 3.49982 37.9021C3.23611 37.8174 2.97168 37.7325 2.70636 37.6474C2.74805 37.8597 2.7851 38.045 2.8194 38.2165L2.81942 38.2166C2.86911 38.4652 2.91304 38.6849 2.95697 38.9159C3.18972 38.9867 3.41831 39.0572 3.64406 39.1268C4.13405 39.2779 4.61063 39.4248 5.08721 39.5628C5.41365 39.6563 5.7412 39.7431 6.06877 39.8298C6.41182 39.9207 6.75491 40.0115 7.09678 40.1102C7.29587 40.1683 7.50071 40.21 7.7057 40.2517C8.16493 40.3452 8.62493 40.4389 9.02281 40.7164C7.69821 40.6605 6.43791 40.3142 5.17928 39.9685C4.58574 39.8054 3.99258 39.6425 3.39323 39.5101C3.73202 40.882 4.62774 41.4521 5.91795 41.5281C6.01339 41.5339 6.10692 41.5657 6.20099 41.5978L6.20104 41.5978C6.25333 41.6157 6.3058 41.6335 6.35885 41.647C11.2598 42.8885 16.2489 43.6177 21.2891 44.0167C21.8577 44.0615 22.4263 44.125 22.9949 44.1886L22.9953 44.1886C23.2619 44.2184 23.5286 44.2482 23.7952 44.276C22.5527 44.4859 21.3258 44.3646 20.101 44.2436C19.6971 44.2036 19.2935 44.1637 18.8896 44.1357C17.2369 44.0216 15.593 43.7757 13.9537 43.5305L13.9536 43.5305L13.8448 43.5142C12.9414 43.379 12.0435 43.2166 11.1451 43.0541C10.4144 42.922 9.68335 42.7897 8.94855 42.672C8.16664 42.5461 7.4026 42.3356 6.62892 42.1225L6.62889 42.1225L6.62887 42.1225L6.62883 42.1225C5.7769 41.8878 4.91327 41.6499 4.0012 41.5181C4.00963 41.6336 4.01439 41.7314 4.01859 41.8178C4.02594 41.9692 4.03157 42.0851 4.05226 42.1982C4.08196 42.3515 4.13046 42.5014 4.17769 42.6474L4.17771 42.6475C4.19688 42.7067 4.21584 42.7653 4.23326 42.8233C4.31872 42.8492 4.39903 42.8753 4.47598 42.9003L4.47614 42.9004C4.64151 42.9541 4.79134 43.0027 4.94334 43.0343C8.41483 43.7484 11.9188 44.265 15.4367 44.7032C15.66 44.731 15.8848 44.7528 16.1099 44.7747L16.11 44.7747C16.9234 44.8539 17.7401 44.9334 18.4998 45.2911C13.9441 45.109 9.48705 44.2645 5.00906 43.416L4.46995 43.3139C4.61846 44.5624 5.29605 45.3528 6.41454 45.5597C9.07386 46.0529 11.7703 46.199 14.4714 46.2857C14.5558 46.2885 14.6414 46.2865 14.7272 46.2844C15.0424 46.277 15.3621 46.2695 15.6502 46.4964C14.8639 46.7644 14.06 46.7252 13.2618 46.6863L13.2617 46.6862L13.2617 46.6862L13.2616 46.6862L13.2615 46.6862C13.0516 46.676 12.8422 46.6658 12.6335 46.6612C11.5939 46.6376 10.5543 46.5668 9.51476 46.4955C8.82069 46.4477 8.12877 46.3881 7.37777 46.3234L7.37763 46.3234L7.37738 46.3234C7.02371 46.2929 6.65694 46.2614 6.27067 46.2293C6.41741 46.5371 6.55133 46.8299 6.67982 47.1108L6.67986 47.1109L6.67986 47.1109L6.67986 47.1109L6.67987 47.1109C6.94556 47.6917 7.18804 48.2218 7.4727 48.7294C7.92752 49.5389 8.61439 49.9129 9.64006 49.9411C14.3461 50.0683 18.95 49.3483 23.526 48.4348C24.3657 48.2675 25.1768 47.9614 25.9865 47.6557L25.9866 47.6557C26.26 47.5525 26.5332 47.4494 26.8073 47.3517C26.9465 47.3017 27.1414 47.038 27.1043 46.9467C27.0621 46.8367 26.943 46.755 26.8165 46.6682C26.7619 46.6308 26.7059 46.5923 26.6541 46.5503C27.1321 46.3356 27.5313 46.016 27.5266 45.3568C27.2385 45.3606 26.957 45.393 26.676 45.4253L26.676 45.4253C26.1423 45.4867 25.6106 45.5479 25.039 45.4122C24.5322 45.2916 23.9731 45.3833 23.4107 45.4756L23.4107 45.4756C23.1182 45.5236 22.8249 45.5717 22.5375 45.5902C22.2695 45.6074 21.9993 45.5831 21.7284 45.5588C21.6053 45.5477 21.482 45.5366 21.3587 45.5294L21.3587 45.3423C22.1686 45.2813 22.9764 45.22 23.7479 45.1614L23.7522 45.1611L23.7583 45.1606L24.8766 45.0758C24.9527 44.8916 25.0206 44.7151 25.0857 44.5455L25.0858 44.5455C25.2272 44.1776 25.3562 43.8418 25.531 43.5293C25.6991 43.226 25.9122 42.9476 26.1421 42.6473L26.1422 42.6473L26.1422 42.6473L26.1423 42.6472L26.1423 42.647C26.2425 42.5163 26.3457 42.3814 26.4499 42.2384C26.3209 42.2138 26.2095 42.1942 26.1099 42.1767L26.1096 42.1767C25.9155 42.1425 25.7663 42.1163 25.6191 42.0764C24.7327 41.8339 24.5471 41.5399 24.8302 40.6806C24.9423 40.3376 25.0987 40.0089 25.2551 39.6803C25.3215 39.5407 25.3879 39.4012 25.451 39.2605ZM42.7134 25.5853L42.7167 25.4846L42.7019 25.4777L42.7074 25.5067L42.7134 25.5853ZM42.7134 25.5853C42.7253 25.7415 42.7384 25.8978 42.7514 26.0541L42.7515 26.0549L42.7516 26.0557L42.7517 26.0566L42.7517 26.0574L42.7517 26.0575C42.8462 27.1881 42.9406 28.3188 42.6332 29.4409C42.5775 29.6533 42.4754 29.855 42.2526 30.0334C42.2918 29.8063 42.3356 29.5796 42.3793 29.353L42.3793 29.3529L42.3793 29.3529L42.3793 29.3528L42.3793 29.3527C42.4754 28.855 42.5714 28.3574 42.6193 27.8552C42.6748 27.3022 42.6866 26.7451 42.6985 26.188C42.7028 25.987 42.707 25.7861 42.7134 25.5853ZM43.6078 36.7046C43.5576 36.4509 43.5074 36.2029 43.4571 35.956L41.8705 35.8327L39.8625 35.6767C39.8588 35.6509 39.8554 35.619 39.8516 35.5828L39.8516 35.5827C39.841 35.4826 39.827 35.3495 39.7929 35.2215C39.6026 34.4969 39.1803 34.2027 38.4516 34.299C38.071 34.3494 37.6905 34.426 37.3192 34.5251C36.4142 34.7661 36.0754 35.2873 36.2053 36.2206C36.2326 36.409 36.2698 36.5961 36.3077 36.7875L36.3078 36.7878C36.328 36.8896 36.3485 36.9926 36.3678 37.0977C35.2957 37.04 34.9708 36.7154 35.0358 35.7285C35.0555 35.4506 35.1091 35.1751 35.1627 34.8994V34.8993V34.8993V34.8993C35.2102 34.6548 35.2578 34.4103 35.2818 34.1637C35.3653 33.3061 35.175 33.0628 34.1401 32.6415C34.1302 32.6591 34.1144 32.6798 34.0967 32.7029C34.0562 32.756 34.0059 32.8218 33.9962 32.892C33.9665 33.1609 33.9329 33.4298 33.8993 33.6987L33.8993 33.6988C33.8067 34.439 33.714 35.1795 33.7038 35.9214C33.6899 36.8076 34.1215 37.5004 35.0312 37.8645C35.2487 37.9526 35.4391 38.1125 35.6624 38.3C35.7727 38.3926 35.8909 38.4919 36.0243 38.5926C35.8927 38.686 35.7753 38.77 35.6672 38.8473L35.6652 38.8488L35.665 38.8489L35.664 38.8496L35.664 38.8497C35.4535 39.0003 35.2781 39.1259 35.1008 39.2465C34.6692 39.5364 34.2375 39.5282 33.8013 39.2555C33.6389 39.1542 33.4718 39.0557 33.3047 38.9654C32.5389 38.5568 31.7917 38.5722 31.1977 39.2241C30.7985 39.6612 30.3669 39.6899 29.8518 39.596C29.1324 39.467 28.4131 39.3626 27.6519 39.4089C28.5476 39.6527 29.4434 39.8964 30.3437 40.1402C30.3344 40.187 30.3252 40.2347 30.3205 40.2814C29.8843 40.3128 29.4526 40.3436 29.021 40.374C30.7382 40.7618 30.7382 40.7618 30.9749 41.1593C30.6906 41.1849 30.4149 41.2101 30.1287 41.2362L30.1215 41.2368C29.896 41.2574 29.6638 41.2786 29.4155 41.3011C29.7465 41.4742 30.1095 41.4852 30.4735 41.4962C31.0181 41.5127 31.5648 41.5293 32.0099 42.0888C31.8624 42.1223 31.7264 42.1589 31.5976 42.1935L31.5974 42.1935L31.5973 42.1936C31.3411 42.2625 31.1137 42.3237 30.8821 42.3376C29.9956 42.3901 29.1092 42.4119 28.2228 42.4142L28.1403 42.4145C27.6796 42.4173 27.2177 42.42 26.9418 41.895C26.8831 41.7836 26.6879 41.7353 26.5039 41.6898C26.4409 41.6742 26.3791 41.6589 26.3246 41.6415C26.0878 41.5691 25.8509 41.5054 25.609 41.4402L25.6088 41.4401L25.6086 41.4401L25.6085 41.4401C25.514 41.4146 25.4186 41.3889 25.3221 41.3624C25.2247 40.7545 25.4567 40.2566 25.7955 39.8664C26.3803 39.1978 26.6773 38.4669 26.668 37.5938C26.668 37.4863 26.7181 37.3785 26.7834 37.2377C26.8196 37.1598 26.8604 37.0718 26.9001 36.9682C27.0666 37.0538 27.2276 37.1344 27.3841 37.2127L27.3842 37.2128L27.3842 37.2128L27.3843 37.2128L27.3844 37.2129C27.725 37.3834 28.0443 37.5432 28.3527 37.721C28.7936 37.9757 29.2392 38.1718 29.7682 38.1264C30.6407 38.0528 31.1652 37.5089 30.9749 36.6833C30.841 36.103 30.5939 35.5458 30.3481 34.9916L30.3481 34.9916L30.3479 34.9913C30.2871 34.8541 30.2263 34.717 30.1674 34.5799C30.0725 34.354 29.943 34.1418 29.7938 33.8972C29.7241 33.7829 29.6501 33.6616 29.5733 33.5285C29.7302 33.5114 29.8878 33.5051 30.0408 33.4991H30.0408H30.0408H30.0408C30.6754 33.4739 31.2313 33.4518 31.3323 32.6728C31.6248 32.7274 31.7724 32.9758 31.9227 33.2287C32.1372 33.5897 32.3573 33.96 33.0123 33.7892C32.9828 33.7153 32.958 33.6473 32.9348 33.5841L32.9347 33.5836L32.9346 33.5834C32.8888 33.4579 32.8497 33.3509 32.7942 33.2529C32.409 32.5701 32.2465 31.847 32.3626 31.0712C32.641 29.1886 32.0423 27.5968 30.7846 26.1677C30.2344 25.5443 29.7409 24.8746 29.2294 24.1805L29.2292 24.1803L29.2292 24.1802C28.9943 23.8615 28.7556 23.5376 28.5059 23.2106C28.6129 23.1554 28.7087 23.1045 28.7972 23.0574L28.7988 23.0565L28.7989 23.0564L28.7992 23.0563C28.9822 22.9589 29.1341 22.8781 29.2902 22.8106C29.451 22.7419 29.6117 22.6729 29.7725 22.6039C30.5635 22.2646 31.3561 21.9246 32.1584 21.6107C33.133 21.2285 34.1308 20.946 35.1704 21.4201C35.2447 21.4541 35.3514 21.4577 35.4303 21.4364C36.8272 21.0528 38.0757 21.3465 39.1988 22.2172L39.2281 22.2398L39.2584 22.2633L39.2592 22.2639C39.5087 22.458 39.7403 22.6381 40.127 22.5591C40.2895 22.5259 40.5772 22.6953 40.6839 22.8527C40.9856 23.284 41.2919 23.733 41.4683 24.2207C41.9231 25.514 42.1691 26.8456 41.9927 28.2283C41.9329 28.6892 41.8936 29.1524 41.8542 29.6155C41.8232 29.9794 41.7922 30.3434 41.7514 30.7062C41.6782 31.3526 41.6963 31.9953 41.7144 32.6427C41.7285 33.1456 41.7427 33.6514 41.7143 34.1641C42.2758 34.1287 42.4011 33.8354 42.3594 33.5348C42.2358 32.6393 42.6325 31.9238 43.0395 31.1898L43.0692 31.1361C43.0956 31.0884 43.1221 31.0405 43.1483 30.9926C43.8955 29.6306 44.1554 28.1357 44.0905 26.6113C44.0209 24.9524 43.8491 23.2968 43.2319 21.7207C43.1734 21.5666 43.1476 21.3995 43.1152 21.1901C43.0987 21.0835 43.0806 20.9659 43.0555 20.8335C43.4268 21.0592 43.6681 21.2058 43.9652 21.3851C44.0983 21.265 44.2252 21.1496 44.3555 21.0311L44.5546 20.8503C44.5838 20.8612 44.6158 20.8704 44.6485 20.8799C44.7197 20.9005 44.7944 20.9221 44.8516 20.9638C45.4967 21.425 45.919 22.0478 46.1557 22.787C46.6291 24.2764 46.9493 25.7861 46.643 27.3549C46.5363 27.897 46.5873 28.4049 46.9354 28.9039C47.2046 28.838 47.5016 28.7658 47.8219 28.6883C48.1931 28.9928 48.1235 29.3692 47.9936 29.7869C47.4739 31.4705 46.4702 32.8874 45.4624 34.3102L45.3807 34.4256C45.2683 34.5859 45.1017 34.592 44.937 34.598C44.7412 34.6051 44.5483 34.6121 44.4525 34.8782C44.3706 35.111 44.2099 35.3172 44.0323 35.5449L44.0323 35.5449L44.0322 35.5451L44.032 35.5453C43.9479 35.6533 43.8599 35.7661 43.7749 35.8888C43.8262 35.8972 43.8721 35.9011 43.9126 35.9044C43.9856 35.9106 44.0407 35.9152 44.0765 35.9423C44.7402 36.4231 45.26 36.1489 45.7752 35.6718C46.0722 35.3921 46.4249 35.1578 47.1071 35.1668C46.9724 35.2733 46.8413 35.3801 46.7123 35.4851L46.712 35.4854C45.7571 36.2628 44.9202 36.9442 43.6078 36.7046ZM19.6415 57.3191L19.6693 57.3477C19.5899 57.3317 19.5101 57.3161 19.4303 57.3006C18.4245 57.1043 17.4087 56.9061 16.7594 55.837C17.9429 55.4288 19.0799 55.037 20.217 54.6453C20.21 54.6117 20.2042 54.5782 20.1984 54.5447C20.1926 54.5112 20.1868 54.4778 20.1799 54.4442C20.118 54.4442 20.0556 54.4403 19.9935 54.4365C19.8601 54.4283 19.7279 54.4201 19.6044 54.4504C18.8592 54.6326 18.1194 54.8269 17.3809 55.0208L17.3808 55.0208L17.3806 55.0209C17.1533 55.0806 16.9262 55.1402 16.6991 55.1995C16.432 55.2684 16.2763 55.3086 16.1266 55.2925C15.9174 55.2701 15.7199 55.1378 15.2464 54.8205C17.618 54.2557 19.8921 53.6838 21.9991 52.6214C21.8353 52.6693 21.6714 52.7183 21.5073 52.7673C21.0951 52.8903 20.6816 53.0137 20.2634 53.1236C19.4596 53.3356 18.6539 53.5441 17.8481 53.7526L17.8481 53.7526L17.848 53.7526L17.8477 53.7527L17.8477 53.7527C16.8298 54.0161 15.8116 54.2795 14.7963 54.5504C14.1444 54.7247 13.6359 54.4542 12.9232 54.075L12.8841 54.0542C13.3614 53.9491 13.8335 53.8577 14.2991 53.7676C16.0204 53.4344 17.6512 53.1187 19.1124 52.1947C19.0263 52.2013 18.9397 52.2056 18.8532 52.2099L18.8532 52.2099C18.6648 52.2193 18.4769 52.2287 18.2956 52.2614C17.8941 52.3324 17.4921 52.4009 17.0899 52.4693C15.9347 52.666 14.779 52.8628 13.636 53.1207C12.2437 53.4358 11.2412 52.8946 10.3594 51.9523C10.1749 51.7552 10.0041 51.5465 9.82146 51.3232L9.82143 51.3232C9.72391 51.204 9.62299 51.0806 9.51476 50.9526C9.80843 50.7162 10.1102 50.7275 10.3954 50.7382C10.4843 50.7416 10.5715 50.7448 10.6565 50.7405C14.7034 50.5286 18.7226 50.0587 22.6814 49.1938C24.1155 48.881 25.5078 48.4343 26.8073 47.7489C26.829 47.7374 26.8508 47.7254 26.8727 47.7132C27.0839 47.5961 27.3004 47.476 27.5359 47.8674C27.2234 48.1196 26.8528 48.2697 26.4804 48.4205C26.0177 48.6078 25.5522 48.7963 25.1922 49.1834L25.7658 49.0096C26.3937 48.8194 27.0146 48.6313 27.6055 48.453C27.7607 48.8116 27.9122 49.1593 28.0632 49.5062C28.2464 49.9268 28.429 50.3462 28.6173 50.7824C28.184 51.0982 27.7148 51.4379 27.2337 51.7861L27.2333 51.7864C26.9621 51.9827 26.6871 52.1817 26.4128 52.3807C26.9214 52.3859 27.3243 52.186 27.7233 51.9881C27.8595 51.9205 27.9952 51.8532 28.1346 51.7943C28.299 51.7244 28.4404 51.6062 28.5847 51.4855C28.8805 51.2381 29.1884 50.9806 29.7311 51.1087C29.5779 51.3207 29.436 51.5143 29.2882 51.7159L29.2879 51.7163L29.2879 51.7163L29.2876 51.7168C29.1849 51.8569 29.0794 52.0008 28.9653 52.1575C29.5051 52.2183 29.7409 51.9142 29.9575 51.6348C30.0072 51.5707 30.0559 51.5079 30.107 51.4512C30.483 51.0315 30.8821 50.864 31.4808 51.0819C30.9239 52.0676 30.1302 52.8393 29.3459 53.602C27.4384 55.4578 25.2896 56.9618 22.7185 57.8339C22.6733 57.8493 22.6283 57.8654 22.5833 57.8815C22.2031 58.0178 21.8249 58.1534 21.3726 57.7958C21.8553 57.5225 22.2822 57.2796 22.7092 57.0363C22.6907 56.9991 22.6721 56.9618 22.6582 56.9246C22.4845 56.9803 22.3107 57.0366 22.137 57.0929L22.1368 57.093L22.1367 57.093L22.1367 57.093C21.735 57.2231 21.3334 57.3533 20.9317 57.4771C20.4815 57.616 20.0267 57.7137 19.6415 57.3191ZM37.0502 43.3474L37.0565 43.2733C36.689 43.2316 36.4144 43.3537 36.3028 43.7356C36.2642 43.8714 36.2337 44.0094 36.2031 44.1473C36.1602 44.3411 36.1173 44.5348 36.0522 44.7218C36.0358 44.769 36.0198 44.8165 36.0037 44.8642C35.8658 45.2742 35.7237 45.6965 35.2539 45.9979C35.2026 45.5655 35.344 45.2165 35.4807 44.879C35.5419 44.7278 35.6021 44.5789 35.6438 44.4259C35.6641 44.35 35.6875 44.274 35.7109 44.1981C35.8533 43.7359 35.9938 43.2798 35.4117 42.9051C35.3325 42.854 35.333 42.6695 35.3335 42.5098C35.3336 42.4732 35.3337 42.4378 35.3328 42.4057C35.2957 41.3275 34.7341 40.9914 33.7502 41.4667C33.5785 41.5493 33.4114 41.642 33.2444 41.7373C32.8128 41.9829 32.409 41.9171 32.0887 41.5766C31.8652 41.3395 31.6672 41.0808 31.4456 40.7911L31.4455 40.7909C31.3405 40.6538 31.2303 40.5096 31.1095 40.3576C31.2817 40.2973 31.4175 40.2494 31.5383 40.2069L31.5393 40.2065C31.6624 40.1631 31.7699 40.1253 31.8845 40.0852C31.8647 40.0194 31.8448 39.9494 31.8244 39.8776L31.8243 39.8773C31.8019 39.7984 31.7789 39.7173 31.7546 39.6373C31.7745 39.6182 31.7923 39.5974 31.8097 39.5771C31.845 39.5358 31.8781 39.497 31.9217 39.4816C32.4136 39.2968 32.8313 39.4979 33.2212 39.7584C33.6853 40.0689 34.1726 40.201 34.7481 40.1416C34.9861 40.1171 35.2325 40.1681 35.5031 40.224C35.6335 40.251 35.7696 40.2791 35.913 40.3005C36.0409 39.8514 36.1688 39.4078 36.2833 39.0109L36.3956 38.6212C36.8703 38.3776 37.1258 38.5887 37.3906 38.8073C37.5685 38.9542 37.7505 39.1046 38.0061 39.1228C38.0202 39.0654 38.0415 39.0054 38.0629 38.9454C38.1119 38.8079 38.1609 38.6705 38.1221 38.5635C37.9697 38.1459 37.7901 37.7384 37.6103 37.3302L37.6102 37.33C37.5326 37.154 37.455 36.9779 37.3795 36.8008C36.9479 35.7707 37.0964 35.4752 38.1964 35.1924C38.3396 35.1552 38.4911 35.1452 38.6553 35.1345C38.7358 35.1292 38.8194 35.1237 38.9064 35.1147C39.06 35.5274 39.0191 35.9577 38.9784 36.3865C38.9257 36.9426 38.8731 37.4961 39.2452 38.0051C39.3574 38.0504 39.4689 38.0956 39.5802 38.1408L39.581 38.1411C39.741 38.2061 39.9007 38.271 40.062 38.3356C40.044 38.3737 40.0306 38.4073 40.0188 38.437C39.9971 38.4914 39.9807 38.5327 39.9507 38.5635C39.9043 38.6171 39.8346 38.6689 39.765 38.688L39.7608 38.6892C38.5769 39.018 38.5767 39.0181 38.433 40.2365C38.4896 40.2979 38.5471 40.3586 38.6046 40.4193L38.6048 40.4195C38.7267 40.5481 38.8487 40.6768 38.9621 40.813C39.0065 40.8663 39.0292 40.937 39.0554 41.0186C39.0676 41.0565 39.0805 41.0967 39.0967 41.1386L38.2799 41.2134C38.3605 41.2921 38.4287 41.3627 38.4898 41.426C38.6116 41.5522 38.7054 41.6493 38.8136 41.7236C39.1338 41.9421 39.519 42.1723 39.8625 41.8531C40.1698 41.5679 39.9839 41.2931 39.808 41.0331C39.7661 40.9711 39.7247 40.91 39.6908 40.8497C39.6256 40.7344 39.5453 40.6271 39.4651 40.5199C39.3852 40.4132 39.3054 40.3065 39.2406 40.192C39.0689 39.8902 39.2313 39.6958 39.519 39.5518C40.0992 39.6694 40.3219 40.1562 40.4287 40.6102C40.6236 41.4495 40.8232 42.3239 40.7721 43.1696C40.7257 43.8905 40.6886 44.5039 41.3847 45.0059C40.7768 45.4672 40.554 46.0061 40.4565 46.6897C40.3359 47.5769 40.0528 48.4579 39.7186 49.2969C39.4123 50.0701 38.9482 50.7796 38.0896 51.1683C37.477 50.7673 37.2078 50.1181 36.9943 49.4953C36.9055 49.2309 36.9907 48.904 37.073 48.5881C37.0983 48.4912 37.1232 48.3954 37.1428 48.3027C37.296 47.6195 36.999 47.2926 36.3028 47.4088C35.5463 47.5351 35.3514 47.8016 35.189 48.5851C35.0961 49.0504 34.8687 49.5011 34.6413 49.9261C34.3536 50.4586 33.8431 50.6684 33.2676 50.4813C32.2668 50.1588 31.2736 50.2776 30.2777 50.3967C30.1744 50.409 30.0711 50.4214 29.9678 50.4332C29.8688 50.4445 29.7678 50.4494 29.6538 50.4549C29.5966 50.4577 29.5363 50.4606 29.4712 50.4646C28.8632 49.5643 28.6497 48.6868 29.4805 47.7729C29.3833 47.6273 29.2928 47.4901 29.2061 47.3586L29.2058 47.3582L29.2055 47.3578C29.131 47.2447 29.0593 47.1359 28.9885 47.0298C29.2881 45.853 30.2195 45.3122 31.1748 44.7577C31.4773 44.582 31.7822 44.405 32.0702 44.206C31.8682 43.9846 31.7141 43.8134 31.5634 43.6458L31.4019 43.4665C31.4972 43.4063 31.5874 43.3484 31.6764 43.2915L31.7732 43.2296C31.7035 43.0026 29.5176 43.1225 28.2367 43.4307C28.4544 43.7015 28.7453 43.7046 29.0355 43.7077C29.2463 43.7099 29.4567 43.7121 29.6383 43.817C28.4548 44.4113 27.0347 44.7635 25.8187 44.7527C25.7755 43.9277 26.2575 43.3997 26.7302 42.8818C26.816 42.7878 26.9016 42.694 26.9836 42.5989C29.5826 43.1152 32.0423 42.9199 34.4789 41.6561C34.4867 41.7689 34.5002 41.8684 34.5123 41.9573L34.5123 41.9574C34.5363 42.1333 34.5545 42.2676 34.5114 42.3819C34.4624 42.5244 34.3536 42.6478 34.2449 42.7711L34.2449 42.7711C34.1992 42.823 34.1535 42.8748 34.1122 42.9281C33.4532 43.7898 33.4718 43.8724 34.5392 44.3918C34.4832 44.5513 34.4258 44.7112 34.3681 44.8717L34.368 44.872C34.2488 45.2036 34.1289 45.5374 34.0194 45.8749C34.0043 45.9239 33.988 45.9735 33.9716 46.0236C33.8927 46.2647 33.8107 46.515 33.8338 46.7488C33.8616 47.0156 34.0148 47.377 34.2236 47.4879C34.4033 47.5808 34.693 47.4964 34.9477 47.4221C34.9891 47.41 35.0294 47.3982 35.0683 47.3875C35.1583 47.3621 35.235 47.282 35.3121 47.2013C35.3464 47.1655 35.3807 47.1296 35.4164 47.0983C35.6635 46.8791 35.909 46.6598 36.1913 46.4077C36.3861 46.2336 36.5986 46.0439 36.8412 45.8277C36.899 45.1359 36.9739 44.2497 37.0496 43.3551L37.0502 43.3474Z" fill="currentColor"/>
<path d="M49.2114 10.4348C49.756 14.0236 48.397 19.7032 46.6665 21.5217C46.7887 21.1343 46.8345 20.9211 46.921 20.7199C47.7863 18.6085 48.4683 16.4498 48.8144 14.2118C48.9315 13.4465 48.9518 12.6681 49.0332 11.8968C49.0791 11.4083 49.1503 10.9218 49.2114 10.4348Z" fill="currentColor"/>
<path d="M52 21.5217C52.7034 19.454 53.3451 17.5667 53.9991 15.6522C54.0361 16.8248 52.9378 20.1305 52 21.5217" fill="currentColor"/>
<path d="M55.2286 16.9565C55.2563 17.2165 55.3838 17.4966 55.3117 17.7337C54.8906 19.0756 54.342 20.3772 53.3335 21.5217C53.9597 20.0012 54.5914 18.4811 55.2231 16.9606L55.2286 16.9565Z" fill="currentColor"/>
<path d="M38.6667 51.968C38.5754 52.4189 38.4842 52.87 38.3965 53.3204C38.2877 53.5441 38.1789 53.7676 38 54.1304C38.0386 53.1779 38.214 52.4256 38.4351 51.5217C38.5544 51.7473 38.6105 51.8582 38.6667 51.968Z" fill="currentColor"/>
<path d="M52.6665 35.2174C53.5567 34.7831 54.4429 34.348 55.3332 33.9131C54.573 34.7626 53.6462 35.0857 52.6665 35.2174Z" fill="currentColor"/>
<path d="M47.3335 24.7826C47.3917 24.6718 47.4353 24.5561 47.5032 24.4513C47.8571 23.8944 48.2208 23.3405 48.6668 22.8261C48.4147 23.5636 48.1383 24.2904 47.3335 24.7826Z" fill="currentColor"/>
<path d="M43.4411 52.8261C44.1466 53.3323 44.0753 53.6726 43.8188 54.1304C43.1205 53.7463 43.3556 53.3663 43.4411 52.8261Z" fill="currentColor"/>
<path d="M52 24.1304C52.0436 23.6021 52.3268 23.2008 52.6667 22.8261C52.6057 23.3394 52.3355 23.7506 52 24.1304Z" fill="currentColor"/>
<path d="M50.6667 28.13C50.4499 28.3183 50.227 28.5073 50.0102 28.6957C49.95 28.3793 50.1608 28.1802 50.5221 28.0435C50.5703 28.0729 50.6185 28.1014 50.6667 28.13Z" fill="currentColor"/>
<path d="M26.8054 2.60872C26.9953 2.8604 27.2082 3.10036 27.3749 3.36554C29.7781 7.16403 31.8432 11.116 33.1952 15.3936C33.5008 16.3552 33.7277 17.3408 33.9499 18.324C34.0379 18.7072 34.0148 19.1141 33.8388 19.5652C33.7369 19.397 33.5703 19.2397 33.5378 19.0593C32.834 15.1194 31.2736 11.4704 29.4817 7.90824C28.7733 6.50041 27.9722 5.13715 27.2175 3.75138C27.023 3.40156 26.8471 3.04454 26.6665 2.69066C26.7128 2.6632 26.7591 2.63619 26.8054 2.60872Z" fill="currentColor"/>
<path d="M4 17.6087C5.29653 18.1571 14.5219 25.6578 15.3333 26.7391C14.3224 26.2981 5.0744 18.8935 4 17.6087Z" fill="currentColor"/>
<path d="M2.10925 33.913C6.96172 35.6084 11.8142 37.3039 16.6667 38.9992C16.6576 39.0432 16.653 39.087 16.6439 39.1304C16.4618 39.1171 16.2615 39.1389 16.0931 39.0844C11.6185 37.6477 7.1347 36.2359 2.79661 34.4266C2.52348 34.3122 2.26402 34.1637 2 34.0318C2.03642 33.9918 2.07283 33.9523 2.10925 33.913Z" fill="currentColor"/>
<path d="M27.3332 33.2609C25.7975 32.7017 20.2067 28.1148 18.6665 26.087C19.324 26.337 19.7102 26.6736 20.0918 26.9995C21.0389 27.8173 21.9585 28.669 22.9102 29.4873C24.3677 30.7479 25.8435 31.993 27.3332 33.2609" fill="currentColor"/>
<path d="M34 11.7391C33.3901 10.0848 32.8386 8.40679 32.1525 6.78283C31.4709 5.15887 30.6637 3.58942 30 1.95653C31.9372 4.96677 33.5919 8.09674 34 11.7391Z" fill="currentColor"/>
<path d="M8.22222 12.3913C10.5941 14.7283 12.966 17.0653 15.3333 19.4027C15.288 19.457 15.2426 19.511 15.1973 19.5652C15.0476 19.4749 14.8662 19.4088 14.7438 19.2911C12.6032 17.227 10.4671 15.159 8.34014 13.0842C8.19501 12.9445 8.11338 12.7511 8 12.5826C8.0771 12.5186 8.14966 12.4549 8.22222 12.3913Z" fill="currentColor"/>
<path d="M14.0958 5.86958C14.3879 6.12032 14.7183 6.33938 14.9625 6.62694C16.8827 8.86687 18.4198 11.3594 19.9425 13.8603C19.9904 13.941 19.9665 14.0631 20 14.3478C19.7606 14.0337 19.6265 13.8636 19.4972 13.6879C17.7159 11.2163 15.9298 8.74429 14.1532 6.27086C14.0862 6.17765 14.0479 6.06486 14 5.96139C14.0287 5.93063 14.0623 5.90034 14.0958 5.86958Z" fill="currentColor"/>
<path d="M17.1494 20.2174C15.2123 18.0991 13.2706 15.981 11.3335 13.8632C11.3703 13.8072 11.4117 13.7517 11.4485 13.6957C11.6372 13.8049 11.8626 13.8773 12.0053 14.0294C13.2108 15.3403 14.4071 16.659 15.5896 17.9881C16.1878 18.6583 16.7537 19.3559 17.3335 20.0406C17.2691 20.0998 17.2093 20.1585 17.1494 20.2174" fill="currentColor"/>
<path d="M25.3333 46.3044C24.237 46.926 20.8387 47.1301 18 46.7998C20.3565 46.4533 22.7448 46.5517 25.3333 46.3044Z" fill="currentColor"/>
<path d="M22.6668 15C21.1692 13.2217 19.4274 10.161 19.3335 9.13043C20.3147 10.2103 22.526 14.1066 22.6668 15Z" fill="currentColor"/>
<path d="M9.21693 31.3043C6.69489 30.1841 4.34744 28.8073 2 27.3913C2.18915 27.4338 2.40256 27.4442 2.56746 27.5246C3.50838 27.9885 4.44929 28.4531 5.37081 28.9469C6.70459 29.6599 8.01411 30.3983 9.33333 31.1254C9.29453 31.1847 9.25573 31.2442 9.21693 31.3043Z" fill="currentColor"/>
<path d="M22.6665 4.56524C24.1379 6.51962 25.3184 8.65172 25.9998 11.087C24.8887 8.91306 23.7776 6.73915 22.6665 4.56524Z" fill="currentColor"/>
<path d="M23.3333 12.3913C21.9837 10.549 20.9222 8.56878 20 6.52173C21.3112 8.38268 22.3247 10.3861 23.3333 12.3913Z" fill="currentColor"/>
<path d="M28.0002 20.2174C27.3203 19.4862 25.488 15.3838 25.3335 14.3478C26.243 16.288 27.3512 18.1282 28.0002 20.2174Z" fill="currentColor"/>
<path d="M18 15.6522C16.7019 14.6125 14.4579 12.0273 14 11.0869C15.7308 12.5538 16.9535 14.0336 18 15.6522Z" fill="currentColor"/>
<path d="M21.3335 3.91303C22.4027 5.77462 23.3041 7.72114 24.0002 9.78259C22.9226 7.92839 22.1469 5.90571 21.3335 3.91303Z" fill="currentColor"/>
<path d="M25.3255 39.0993C23.6067 38.738 22.1194 38.008 20.6665 37.1739C20.898 37.2252 21.1442 37.2546 21.3658 37.331C22.5232 37.7336 23.6756 38.1437 24.8231 38.5616C25.1137 38.6674 25.4535 38.7752 25.291 39.1304L25.3255 39.0993Z" fill="currentColor"/>
<path d="M17.3967 37.8261C19.3756 38.478 21.3546 39.1303 23.3335 39.7826C21.2184 39.6401 19.2492 38.9742 17.3335 38.1054C17.3578 38.0121 17.3773 37.9188 17.3967 37.8261Z" fill="currentColor"/>
<path d="M24.0002 37.1739C22.3203 36.5385 20.7372 35.7439 19.3335 34.5652C21.0087 35.1902 22.5413 36.1238 24.0002 37.1739Z" fill="currentColor"/>
<path d="M2.6665 23.4783C3.47288 23.6363 4.9763 24.6194 6.6665 26.087C5.605 25.8432 3.30432 24.3405 2.6665 23.4783Z" fill="currentColor"/>
<path d="M25.3332 29.3478C24.292 28.7015 23.6291 27.7529 22.6665 26.7391C23.6929 27.1966 24.7291 28.1894 25.3332 29.3478Z" fill="currentColor"/>
<path d="M6.04848 44.3478C6.92121 44.5351 7.79394 44.7232 8.66667 44.9106C7.68485 45.1493 6.83636 44.8706 6 44.5369C6.01616 44.4738 6.03232 44.411 6.04848 44.3478Z" fill="currentColor"/>
<path d="M35.3335 15.6522C35.7939 16.6925 35.9954 17.7828 36.0002 18.913C35.4006 17.9006 35.4774 16.7545 35.3335 15.6522Z" fill="currentColor"/>
<path d="M26.4061 20.2174C25.8244 19.3483 25.2482 18.4787 24.6665 17.6087C25.5529 18.3678 26.1346 19.2468 26.6665 20.1444C26.5779 20.1684 26.4948 20.1931 26.4061 20.2174Z" fill="currentColor"/>
<path d="M14.6288 42.3913C13.494 42.0866 12.3354 41.8961 11.3335 41.0869C12.4446 41.4355 13.5557 41.7829 14.6668 42.1315C14.6526 42.2177 14.6431 42.3044 14.6288 42.3913Z" fill="currentColor"/>
<path d="M14.0596 24.1305C14.9286 24.7257 15.7976 25.3213 16.6667 25.9166C16.612 25.9731 16.5624 26.0301 16.5127 26.087C15.5146 25.6341 14.6654 25.01 14 24.1851L14.0596 24.1305Z" fill="currentColor"/>
<path d="M26.6665 5.21742C27.2094 6.00884 27.7665 6.79504 27.9998 7.82611C27.3903 7.15068 26.857 6.12846 26.6665 5.21742Z" fill="currentColor"/>
<path d="M6.47545 20.8696C5.65375 20.4347 4.82687 20.0001 4 19.5652C5.11628 19.6354 5.82946 20.2222 6.66667 20.6505C6.60465 20.7234 6.54264 20.7967 6.47545 20.8696" fill="currentColor"/>
<path d="M13.3335 30C14.0029 30.4347 14.6682 30.8696 15.3335 31.3043C14.5286 31.2137 13.8961 30.696 13.3335 30Z" fill="currentColor"/>
<path d="M18.6668 6.49918C18.072 6.08221 17.8299 5.31795 17.3335 4.56521C18.0761 5.11648 18.3181 5.49486 18.6463 6.52173L18.6668 6.49918Z" fill="currentColor"/>
<path d="M11.3335 49.0004C10.6641 49.0004 9.99878 49.0004 9.3335 49.0004C9.3335 48.9603 9.3335 48.9205 9.3335 48.8804C10.0029 48.8804 10.6682 48.8804 11.3335 48.8804C11.3335 48.9205 11.3335 48.9603 11.3335 49.0004Z" fill="currentColor"/>
<path d="M12 7.82608C12.3415 8.02737 12.5156 8.44152 12.6667 9.13043C12.2397 8.78472 12.0887 8.35396 12 7.82608Z" fill="currentColor"/>
<path d="M28.6668 32.5635C27.8898 32.8222 27.6859 31.9123 27.3335 31.3044C27.9407 31.3885 28.1743 32.233 28.6626 32.5606L28.6668 32.5635Z" fill="currentColor"/>
<path d="M9.31319 47.6961C8.65329 47.6961 7.99339 47.6961 7.3335 47.6961C7.3335 47.6565 7.3335 47.6157 7.3335 47.5761C7.99847 47.5761 8.66345 47.5761 9.3335 47.5761C9.32842 47.6157 9.32334 47.6565 9.31319 47.6961Z" fill="currentColor"/>
<path d="M4.75717 41.087C5.39184 41.2348 6.03184 41.3837 6.6665 41.5321C6.64517 41.6011 6.6185 41.6701 6.59184 41.7391C5.95184 41.5956 5.3065 41.4519 4.6665 41.3081C4.69317 41.2341 4.72517 41.161 4.75717 41.087Z" fill="currentColor"/>
<path d="M24.6665 34.5972C25.1129 34.8036 25.5534 35.0108 25.9998 35.2174C25.4595 35.1999 24.9191 35.1563 24.69 34.5652L24.6665 34.5972" fill="currentColor"/>
<path d="M24.6668 34.5446C24.099 34.5583 23.7036 34.2963 23.3335 33.9992C23.3639 33.9701 23.3994 33.9416 23.4349 33.913C23.8354 34.1304 24.241 34.3478 24.6466 34.5652L24.6668 34.5446Z" fill="currentColor"/>
<path d="M13.9581 24.1304C13.751 23.9136 13.5405 23.6979 13.3335 23.4809C13.6774 23.4495 13.8703 23.6982 14.0002 24.067L13.9581 24.1304Z" fill="currentColor"/>
<path d="M18.6665 6.54767C19.2614 6.78655 19.3606 7.27985 19.3275 7.82611C19.116 7.39152 18.9111 6.95635 18.6996 6.52176L18.6665 6.54767Z" fill="currentColor"/>
<path d="M18.2047 21.5217C18.3412 21.7136 18.4777 21.9053 18.6667 22.1739C18.5197 22.0825 18.4147 22.0335 18.3307 21.9647C18.21 21.8674 18.1102 21.7547 18 21.6485C18.0682 21.6063 18.1365 21.5637 18.2047 21.5217Z" fill="currentColor"/>
<path d="M9.92933 26.7391C9.72798 26.5645 9.53074 26.3947 9.3335 26.2244C9.35815 26.1788 9.38281 26.1331 9.40746 26.087C9.6047 26.2449 9.80605 26.4013 9.99918 26.5659C10.0074 26.5721 9.9622 26.6568 9.92933 26.7391Z" fill="currentColor"/>
<path d="M30.3077 18.2609C30.2051 18.055 30.1026 17.8491 30 17.6433C30.0769 17.632 30.1538 17.6199 30.2308 17.6087C30.3761 17.8158 30.5214 18.0229 30.6667 18.23C30.547 18.2404 30.4274 18.2504 30.3077 18.2609" fill="currentColor"/>
<path d="M43.1511 35.1701C42.801 35.0782 42.5852 34.8889 42.6955 34.5111C42.7578 34.2901 42.849 34.072 42.9593 33.8697C44.3166 31.4048 44.9209 28.7514 45.0791 25.9863C45.0887 25.8006 45.1127 25.6153 45.1894 25.4348C45.5204 27.249 45.2422 29.0257 44.7386 30.7619C44.4221 31.8702 43.9185 32.9275 43.5108 34.0122C43.3621 34.4076 43.247 34.8155 43.1175 35.2174L43.1511 35.1701Z" fill="currentColor"/>
<path d="M37.9688 33.913C37.6844 30.0498 36.7689 26.3701 35.3335 22.8261C36.8534 24.8276 38.2266 31.2661 37.9688 33.913Z" fill="currentColor"/>
<path d="M33.3335 24.7826C34.9519 26.6207 36.7012 30.5 36.6663 31.9565C35.567 29.5878 34.4503 27.1852 33.3335 24.7826Z" fill="currentColor"/>
<path d="M39.4689 29.3746C39.5644 29.4263 39.7157 29.47 39.7396 29.5311C40.2093 30.7231 40.0262 33.0998 39.3335 34.5652C39.3972 32.756 39.4529 31.0518 39.5166 29.3478L39.4689 29.3746Z" fill="currentColor"/>
<path d="M42.9259 35.8696C42.8509 35.635 42.7818 35.4008 42.7068 35.1663L42.6665 35.2098C43.3005 34.384 43.9345 33.5583 44.6665 32.6087C44.58 33.3975 44.1478 33.9578 43.7731 34.5306C43.4792 34.9717 43.191 35.4145 42.9028 35.8569L42.9259 35.8696Z" fill="currentColor"/>
<path d="M38.6667 25.4348C38.443 24.7826 38.2237 24.1304 38 23.4782C38.5658 24.0048 38.6228 24.7188 38.6667 25.4348Z" fill="currentColor"/>
<path d="M35.3323 26.087C35.1104 25.4345 34.8884 24.7823 34.6665 24.1305C35.2148 24.568 35.3454 25.2657 35.3323 26.087Z" fill="currentColor"/>
<path d="M39.4198 28.6781C39.3808 28.615 39.3135 28.5541 39.3064 28.4884C39.2886 28.3434 39.3028 28.1961 39.3985 28.0435C39.3985 28.2607 39.3985 28.4782 39.3985 28.6957L39.4198 28.6781Z" fill="currentColor"/>
<path d="M25.3333 53.4783C23.3232 55.3546 20.871 56.3087 18 56.7391C18.4002 56.245 18.8701 56.2065 19.2657 56.0697C21.3503 55.3501 23.3976 54.5546 25.3333 53.4783Z" fill="currentColor"/>
<path d="M19.3623 57.3913C19.5303 57.2485 19.6694 57.0339 19.8614 56.9743C22.2083 56.2485 24.4016 55.2285 26.5612 54.1332C26.5852 54.1217 26.6332 54.1488 26.6668 54.1577C25.3902 55.3972 21.8771 56.9337 19.3335 57.3633L19.3623 57.3913" fill="currentColor"/>
<path d="M18.6665 50.8695C16.0784 51.7704 13.4149 51.9919 10.6665 52.1739C10.8834 51.5688 11.2746 51.6896 11.5952 51.6587C13.462 51.4769 15.3241 51.3095 17.1862 51.119C17.6812 51.0682 18.1715 50.9545 18.6665 50.8695Z" fill="currentColor"/>
<path d="M20.6665 51.5196C22.4443 50.868 24.2221 50.2168 25.9998 49.5652C24.4527 50.8291 22.6941 51.5667 20.6665 51.5196Z" fill="currentColor"/>
<path d="M22.6668 53.4783C22.5024 53.9495 22.2087 54.231 21.3335 54.097C21.9502 53.8114 22.3085 53.6442 22.6668 53.4783Z" fill="currentColor"/>
<path d="M36.7147 43.5014C36.457 43.4519 36.1945 43.4148 35.9368 43.3508C35.493 43.2381 35.2592 42.928 35.3546 42.5301C35.5169 41.8776 35.9607 41.4129 36.5859 41.1108C36.6909 41.0586 36.9581 41.0979 37.0011 41.1719C37.0822 41.3047 37.1251 41.5474 37.044 41.6529C36.8006 41.975 36.4904 42.254 36.247 42.5044C36.8388 42.7395 37.3828 42.9547 38.1321 43.2527C38.1464 43.2457 38.3707 43.1129 38.6093 43.0139C39.2965 42.7306 39.769 42.9453 39.9551 43.6153C39.9837 43.7218 39.998 43.8349 39.998 43.9451C40.0028 44.2775 39.998 44.6097 39.998 45C39.4063 44.889 39.5924 44.3055 39.1486 44.0323C39.0961 44.0617 38.9768 44.1205 38.867 44.187C37.8935 44.7581 37.526 44.6931 36.9152 43.8332C36.8293 43.7124 36.7529 43.5864 36.6718 43.463L36.7147 43.5014Z" fill="currentColor"/>
<path d="M32 45.6522C32.2739 45.119 32.6284 44.6951 33.2515 44.3478C33.5147 45.1598 33.1548 45.5347 32 45.6522Z" fill="currentColor"/>
<path d="M44 11.0916C44.2162 11.1785 44.6092 11.2564 44.6288 11.354C44.7074 11.6929 44.6583 12.0383 44.5306 12.3913C44.3537 11.9562 44.1769 11.522 44 11.0869V11.0916Z" fill="currentColor"/>
<path d="M44.013 11.082C43.9976 10.6488 43.9822 10.2157 43.9668 9.78263C44.0068 9.78514 44.0468 9.78765 44.0868 9.79016C44.0622 10.2223 44.0376 10.6544 44.013 11.087V11.082Z" fill="currentColor"/>
<path d="M32.6665 55.4348C33.3349 54.1306 33.9981 52.8259 34.6665 51.5218C34.4318 52.9999 33.692 54.2993 32.6665 55.4348Z" fill="currentColor"/>
<path d="M33.9629 51.5218C34.09 52.1264 33.8917 52.4818 33.3728 52.8261C33.21 52.2055 33.5814 51.9208 33.9629 51.5218Z" fill="currentColor"/>
<path d="M31.3335 52.8261C31.5299 52.6303 31.7323 52.4346 32.0002 52.1739C31.9406 52.5468 31.9406 52.5468 31.3335 52.8261Z" fill="currentColor"/>
<path d="M30.6665 54.0099C30.7695 53.8677 30.8616 53.7167 30.9754 53.5862C31.0405 53.5065 31.1435 53.4578 31.3332 53.4866C31.2464 53.6143 31.1651 53.7508 31.0676 53.8664C30.9809 53.9667 30.867 54.0436 30.7641 54.1304C30.7315 54.0901 30.699 54.0501 30.6665 54.0099" fill="currentColor"/>
</svg>
