<svg width="60" height="60" viewBox="0 0 60 60" fill="none" xmlns="http://www.w3.org/2000/svg">
<path fill-rule="evenodd" clip-rule="evenodd" d="M57.943 20.3001C58.6152 19.459 58.9059 18.6881 58.2004 17.7277C59.1883 16.928 59.6652 15.9899 59.5122 14.7623C59.4822 14.5226 59.5723 14.2724 59.6636 14.0189C59.7233 13.853 59.7836 13.6856 59.811 13.519C60.1098 11.7015 60.2835 9.9059 58.4906 8.61687C58.5869 8.53881 58.6844 8.46743 58.7792 8.39809C58.99 8.24388 59.187 8.09974 59.3255 7.91457C59.4895 7.69508 59.6657 7.27705 59.5608 7.11301C59.1968 6.54401 59.3409 6.03139 59.4914 5.49617C59.5239 5.38044 59.5568 5.26364 59.5848 5.14499C59.7994 4.23344 59.3615 3.42396 58.7307 2.82558C58.1037 2.2314 57.3021 2.5427 56.6149 2.86799C56.3025 3.01595 56.0135 3.21016 55.7181 3.40868C55.5828 3.49965 55.4461 3.59153 55.3052 3.68027C55.2352 3.58764 55.1689 3.49869 55.1046 3.41247C54.9774 3.24187 54.8582 3.08195 54.7345 2.92531C53.5219 1.39069 52.0408 0.332348 49.9428 0.271763C49.5213 0.259583 49.1013 0.202431 48.6814 0.145279C48.2657 0.0887184 47.8501 0.0321579 47.433 0.0191765C43.8328 -0.0940666 40.3427 0.24147 37.3348 2.46301C36.845 2.82465 36.3012 3.13782 35.7416 3.38761C33.4055 4.43011 31.0592 5.45256 28.7024 6.45126C28.1832 6.67122 27.6144 6.80124 27.0553 6.90749C26.6608 6.98243 26.256 7.02959 25.8517 7.07667C25.0971 7.16456 24.3447 7.2522 23.6663 7.51985C21.8152 8.24993 20.0295 9.14091 18.2483 10.0297C18.0602 10.1235 17.8722 10.2173 17.6842 10.3109C16.8528 10.7242 16.054 11.1995 15.2558 11.6745C14.9956 11.8294 14.7354 11.9842 14.4742 12.1368L14.4528 12.1493C13.9676 12.4332 13.4788 12.7191 13.0326 13.0548C11.9461 13.8704 10.8697 14.6999 9.81587 15.5546C7.90124 17.1069 6.08813 18.7604 5.0021 20.9917C4.96217 21.0737 4.92299 21.1559 4.88396 21.2377C4.5001 22.0424 4.1298 22.8186 3.18899 23.2002C2.96621 23.2906 2.78576 23.5409 2.64622 23.7543C1.25656 25.884 0.168116 28.113 0.174371 30.7144C0.174514 30.7652 0.174667 30.8161 0.174821 30.867C0.178281 32.0153 0.181759 33.1691 0.0661045 34.3093C-0.0926864 35.8733 0.0324216 37.3902 0.465007 38.8997C0.593002 39.3466 0.680578 39.8336 0.638714 40.2898C0.57616 40.9767 0.798949 41.5308 1.13241 42.1138C1.51351 42.7807 1.87392 43.4891 2.05725 44.2231C2.22133 44.8811 2.48743 45.4091 2.95033 45.9035C3.22797 46.2004 3.54988 46.6291 3.53064 46.9819C3.48059 47.8893 3.92617 48.4667 4.61956 48.9085C5.09689 49.2123 5.38945 49.5483 5.47895 50.1187C5.58433 50.7898 6.00392 51.3784 6.66459 51.5718C7.46306 51.8055 7.66592 52.3552 7.90086 52.9918C7.90816 53.0116 7.9155 53.0315 7.92289 53.0514C8.63456 54.9743 10.0132 56.1538 12.1155 56.6039C13.0028 56.7936 13.9574 57.1059 14.6547 57.6404C16.7554 59.2511 19.2085 59.5152 21.6645 59.7797C22.2604 59.8439 22.8565 59.908 23.4478 59.9915C23.5839 60.0107 23.7249 59.9938 23.8665 59.9768C23.9482 59.9669 24.0302 59.9571 24.1114 59.9542C24.4268 59.9427 24.7425 59.935 25.0582 59.9273C25.7142 59.9112 26.3702 59.8952 27.0235 59.8452C27.9522 59.7739 28.877 59.6466 29.6186 58.9965C30.323 58.379 31.1333 58.0034 32.087 57.8212C32.7853 57.6873 33.4578 57.3772 34.1108 57.0761C34.1329 57.066 34.1548 57.0559 34.1768 57.0457C34.6285 56.8374 35.0714 56.6092 35.5141 56.381C36.232 56.0111 36.9492 55.6415 37.702 55.3578C38.4276 55.0838 39.057 54.799 39.5805 54.2295C39.7738 54.0198 40.0141 53.852 40.255 53.6839C40.4476 53.5494 40.6407 53.4146 40.8104 53.2579C41.1604 52.9343 41.4941 52.5939 41.8277 52.2535C42.0683 52.008 42.3089 51.7625 42.5557 51.5233C42.8564 51.2316 43.174 50.9515 43.5118 50.7013C43.7078 50.5558 43.916 50.4232 44.1239 50.2909C44.4646 50.0739 44.8046 49.8575 45.0891 49.5851C45.968 48.7434 46.5451 47.7099 47.1236 46.6739C47.3432 46.2806 47.563 45.8869 47.7996 45.5032C49.3288 43.0226 50.6853 40.4762 51.8546 37.8245C52.0375 37.4098 52.2804 37.0208 52.5236 36.6314C52.7169 36.322 52.9103 36.0123 53.0739 35.6892C53.1752 35.489 53.2835 35.2888 53.3923 35.0879C53.7599 34.4085 54.1319 33.7211 54.2485 33.0007C54.2755 32.833 54.3009 32.665 54.3263 32.4972C54.4876 31.4303 54.6476 30.3714 55.2306 29.4468C56.0895 28.0832 56.4523 26.6245 56.4966 25.0601C56.4974 25.0306 56.4964 25.0008 56.4954 24.9709C56.4935 24.914 56.4916 24.8571 56.5023 24.8024C56.5605 24.5101 56.6108 24.2145 56.6613 23.9186C56.8791 22.6412 57.098 21.3573 57.943 20.3001ZM58.8143 6.7575C58.7932 7.00858 58.771 7.27201 58.7432 7.55294C58.4136 7.74893 57.9392 8.03149 57.4013 8.35189L57.2131 8.46402C57.282 8.56583 57.3385 8.66341 57.3906 8.75335C57.491 8.92686 57.575 9.07191 57.7005 9.16399C59.1994 10.2638 59.0752 11.7956 58.7442 13.2715C58.4538 14.5657 57.9545 15.8235 57.4609 17.067L57.4156 17.181C56.2531 20.11 55.2594 23.0828 54.4424 26.124C53.8635 28.2799 53.0474 30.3835 52.2208 32.4671C50.8855 35.8332 49.5396 39.2007 48.0373 42.4988C46.805 45.2036 44.8663 47.4638 42.5937 49.4328C41.7476 50.1656 40.8764 50.8714 40.0053 51.5772C39.5824 51.9199 39.1595 52.2625 38.7394 52.6082C34.9549 55.7232 30.5039 57.3524 25.6286 57.7676C22.0028 58.0766 18.5898 57.1958 15.5333 55.1663C15.0566 54.8496 14.559 54.5609 14.0614 54.2721C12.9597 53.6329 11.8581 52.9937 10.9847 52.0518C7.41235 48.1997 4.04647 44.2217 2.57211 39.0837C2.17369 37.694 2.12654 36.2992 2.13279 34.8732C2.13599 34.0655 2.0845 33.2576 2.03301 32.4497C1.98377 31.677 1.93451 30.9042 1.9331 30.1314C1.9307 29.1569 1.99132 28.1415 2.27859 27.2192C2.52005 26.4455 2.92354 25.7176 3.32558 24.9923C3.45073 24.7666 3.57574 24.541 3.69568 24.3145C3.81117 24.0964 4.02529 23.8349 4.24568 23.7771C5.02435 23.5733 5.31827 22.9787 5.61248 22.3835C5.63843 22.331 5.66438 22.2785 5.69067 22.2262C7.30409 19.0148 9.91692 16.736 13.0119 14.9334C16.2883 13.025 19.6951 11.3524 23.3271 10.1743C28.0946 8.62759 32.6231 6.5603 37.1597 4.48742C39.3991 3.4645 41.7338 2.60934 44.0863 1.85625C46.0784 1.21873 48.1803 1.13484 50.2787 1.37857C52.2631 1.60925 53.4127 2.7855 54.1003 4.50607C54.2076 4.77496 54.3375 5.07415 54.5507 5.25776C55.2282 5.84076 55.807 5.69676 56.2502 4.91803C56.2792 4.86724 56.3081 4.81459 56.3374 4.76124C56.4972 4.47005 56.6684 4.15825 56.9258 4.01487C57.3117 3.79957 57.9421 3.57448 58.2466 3.73759C58.7591 4.01208 59.0979 4.56898 58.98 5.26569C58.9 5.74009 58.8595 6.22056 58.8143 6.7575Z" fill="currentColor"/>
<path d="M39.1406 28.3423C39.1189 27.1099 39.7366 26.2164 40.2555 25.2856C40.4064 25.0146 40.6107 24.7078 40.5967 24.4261C40.5413 23.3184 40.4088 22.2144 40.2917 20.9694C40.9031 21.3056 41.1021 21.773 41.1797 22.3071C41.2785 22.9873 41.3315 23.6737 41.4433 24.3516C41.5406 24.9397 41.7704 25.5151 41.8018 26.1037C41.8629 27.2472 41.8427 28.3964 41.8191 29.5422C41.8123 29.8789 41.6317 30.2104 41.6148 30.5479C41.5001 32.8997 40.4796 34.9172 39.1777 36.8365C38.4727 37.8762 37.7317 38.8959 37.087 39.9691C35.5528 42.5225 33.2251 44.175 30.5726 45.4862C29.3896 46.071 28.1162 46.2605 26.8219 46.219C23.0212 46.0989 19.6541 44.9209 17.1317 42.0644C15.811 40.5688 15.1629 38.7767 15.3465 36.6405C15.9527 36.7978 15.9965 37.1945 16.1242 37.5307C16.7689 39.2358 17.5427 40.8617 18.9752 42.1151C20.2815 43.2582 21.7858 44.0614 23.4409 44.6099C23.717 44.7011 24.1381 44.9954 24.2191 44.3687C24.2234 44.338 24.3675 44.3072 24.4475 44.3044C25.8135 44.2514 27.1795 44.2025 28.5455 44.1573C28.5643 44.1564 28.585 44.2118 28.6563 44.3179C28.0704 44.838 27.2257 44.7947 26.5695 45.1439C29.4214 45.1169 31.9415 44.338 33.8404 42.0956C32.6507 42.4443 31.4606 42.7926 30.2709 43.1413C30.2203 43.0668 30.1697 42.9923 30.1191 42.9178C33.6279 41.528 36.3686 39.2833 38.2853 36.173C40.085 33.2513 41.332 27.8097 40.6511 25.9072C40.1066 26.6992 40.0782 27.7305 39.1406 28.3423Z" fill="currentColor"/>
<path d="M15.1031 36.2755C14.8509 35.906 14.538 35.5631 14.3572 35.1638C12.7251 31.5551 13.24 28.167 15.7983 25.1725C18.6059 21.8858 22.2134 19.6583 26.4192 18.3409C28.6651 17.6373 30.9215 17.0216 33.3125 16.9905C35.2764 16.9653 37.8785 17.6452 39.7893 19.8183C39.5005 19.7467 39.3211 19.7513 39.2165 19.6685C36.1216 17.225 32.6457 17.1547 28.9915 18.1022C24.8344 19.1799 21.1936 21.1027 18.036 23.9608C15.0977 26.6207 14.2313 29.8403 14.8027 33.5496C14.9382 34.4258 15.145 35.2913 15.3191 36.1615C15.2467 36.1997 15.1749 36.2374 15.1031 36.2755" fill="currentColor"/>
<path d="M31.2863 37.1938C31.3906 36.9847 31.4506 36.7371 31.6059 36.5744C32.4139 35.7277 33.3449 34.9719 34.0409 34.0497C34.7056 33.1692 35.2166 32.1556 35.6491 31.1425C36.3225 29.5669 36.8666 27.9408 37.4809 26.3416C37.5617 26.1316 37.7333 25.9544 37.8948 25.7143C37.7549 26.8846 37.6395 27.9737 37.4915 29.0583C37.2209 31.0442 36.2447 32.7092 34.807 34.0993C33.6866 35.1824 32.449 36.152 31.2632 37.1721L31.2863 37.1938" fill="currentColor"/>
<path d="M29.0525 54.0507C28.5924 54.3189 28.1625 54.6652 27.6669 54.8434C25.1262 55.7559 22.6231 55.9474 20.1545 54.532C18.986 53.862 17.7041 53.3724 16.4813 52.7869C16.0116 52.5619 15.5631 52.2969 15.1577 51.8877C15.3993 51.958 15.6548 51.9998 15.8796 52.1022C17.6321 52.899 19.3707 53.7242 21.1304 54.5068C22.3767 55.0615 23.7272 55.0477 25.0355 54.8774C26.1166 54.7368 27.1645 54.363 28.2254 54.0856C28.4699 54.0213 28.7057 53.9281 28.9454 53.8487C28.9809 53.9157 29.0164 53.9832 29.0525 54.0507Z" fill="currentColor"/>
<path d="M8.10297 43.3163C8.55871 44.4664 8.82273 45.5033 9.35743 46.3812C9.90879 47.2876 10.6476 48.1201 11.443 48.8357C12.2346 49.5489 13.1988 50.077 14.0527 50.6625C11.0638 50.7257 7.59301 46.6342 8.10297 43.3163Z" fill="currentColor"/>
<path d="M28.5791 9.7959C32.6089 7.97274 36.5148 6.20598 40.4212 4.43876C35.3285 7.46372 32.7982 8.6049 28.5791 9.7959Z" fill="currentColor"/>
<path d="M36.3159 43.4694C37.3318 41.6511 38.2072 39.9841 39.1848 38.3749C39.6743 37.5695 40.3488 36.8699 40.9395 36.1224C41.03 36.184 41.1201 36.2451 41.2107 36.3066C41.0804 36.5458 40.9584 36.7887 40.8189 37.0222C39.973 38.4383 39.1078 39.844 38.2798 41.27C37.8009 42.0951 37.2034 42.7914 36.3159 43.4694Z" fill="currentColor"/>
<path d="M37.2632 24.0306C37.6932 22.6854 38.1064 21.3911 38.5349 20.051C39.2725 20.4206 39.418 21.1199 39.2565 21.8561C39.0238 22.9207 38.4791 23.7882 37.2632 24.0306Z" fill="currentColor"/>
<path d="M20.5264 39.0306C22.548 39.6041 24.3599 40.7174 26.5264 39.5196C25.602 41.338 22.4487 41.0059 20.5264 39.0306Z" fill="currentColor"/>
<path d="M53.2106 22.8061C52.5792 24.079 51.9185 25.3393 51.3242 26.6284C50.7399 27.8962 51.0691 29.4351 50.0527 30.7653C50.4435 27.7326 51.1495 24.9972 53.2106 22.8061Z" fill="currentColor"/>
<path d="M21.7893 41.0204C19.4792 41.0017 17.4534 38.3912 17.7053 36.2755C18.5073 38.5529 19.7326 40.1359 21.7893 41.0204Z" fill="currentColor"/>
<path d="M39.0001 29.5408C38.9787 31.866 37.7153 33.2622 36.3159 34.5919C37.1655 32.9936 38.0151 31.395 39.0001 29.5408Z" fill="currentColor"/>
<path d="M32.8422 30.7653C32.7528 32.6955 31.387 34.0124 29.0527 34.4388C30.7829 33.534 31.9369 32.4239 32.8422 30.7653Z" fill="currentColor"/>
<path d="M22.7368 56.6258C24.5364 56.528 26.3715 56.4286 28.2631 56.3265C26.4034 57.2046 24.5547 56.9803 22.7368 56.6258Z" fill="currentColor"/>
<path d="M28.5791 19.0301C29.7774 18.8459 30.8305 18.0776 32.2107 18.2355C30.9953 18.8779 29.9598 19.7146 28.5791 19.0301Z" fill="currentColor"/>
<path d="M39.7896 48.0612C40.8422 46.7856 41.8948 45.5104 42.9474 44.2347C42.3249 45.8356 41.3359 47.1593 39.7896 48.0612Z" fill="currentColor"/>
<path d="M54.4736 8.87756C54.6769 7.93376 55.5559 7.74602 56.2714 7.34695C56.6003 8.41191 56.1149 8.8156 54.4736 8.87756Z" fill="currentColor"/>
<path d="M16.7368 29.2347C16.8658 27.7146 17.3091 26.4351 18.9473 25.5612C18.3929 26.3379 17.9703 26.8551 17.6343 27.4213C17.2907 28.0005 17.0324 28.6282 16.7368 29.2347" fill="currentColor"/>
<path d="M28.1054 37.0408C26.9944 38.1235 25.9003 38.4626 24.3159 38.1591C25.6803 37.7561 26.7791 37.432 28.1054 37.0408Z" fill="currentColor"/>
<path d="M24.1577 20.6632C23.3642 21.1442 22.5712 21.6247 21.6313 22.1938C22.1834 21.159 22.7105 20.816 24.1577 20.6632Z" fill="currentColor"/>
<path d="M30.1577 55.5612C31.0001 55.2039 31.8421 54.8466 32.684 54.4898C32.0955 55.3993 31.124 55.4732 30.1577 55.5612Z" fill="currentColor"/>
<path d="M42.6553 28.7755C42.3455 27.6298 42.362 26.7199 43.2631 25.8673C43.0608 26.835 42.8829 27.6848 42.6553 28.7755Z" fill="currentColor"/>
<path d="M51.7896 29.6087C52.1646 28.6188 52.5407 27.6253 52.9168 26.6326C53.0149 26.6615 53.1125 26.6904 53.2106 26.7193C52.8172 27.7128 52.5814 28.7507 52.0111 29.6935C52.0081 29.6986 51.9024 29.652 51.7896 29.6087Z" fill="currentColor"/>
<path d="M15.7176 33.5204C15.5311 32.4572 15.3447 31.3936 15.1577 30.3305C15.2072 30.3227 15.2562 30.3139 15.3053 30.3061C15.5192 31.3587 15.7332 32.4117 15.9472 33.4647C15.8707 33.4831 15.7942 33.502 15.7176 33.5204" fill="currentColor"/>
<path d="M24.7896 49.1323C25.4082 49.086 26.0274 49.0401 26.8422 48.9796C26.1131 49.609 25.4587 49.4246 24.8247 49.3759C24.8133 49.2947 24.8014 49.2131 24.7896 49.1323Z" fill="currentColor"/>
<path d="M24.255 43.4694C23.4856 43.2963 22.7167 43.1237 21.9473 42.9511C21.9603 42.8686 21.9734 42.7866 21.9865 42.7041C22.7629 42.8351 23.5393 42.9657 24.3157 43.0963C24.2956 43.2208 24.2751 43.3454 24.255 43.4694Z" fill="currentColor"/>
<path d="M16.9608 35.051C16.9391 34.494 16.9168 33.9375 16.8945 33.3805C16.9972 33.3761 17.0999 33.3717 17.2025 33.3674C17.2579 33.9127 17.3134 34.458 17.3682 35.0033C17.2324 35.0193 17.0966 35.0349 16.9608 35.051" fill="currentColor"/>
<path d="M55.4209 17.7944C55.8379 17.0155 56.2545 16.2371 56.6715 15.4592C56.7792 16.459 56.173 17.1656 55.658 17.9076C55.6537 17.9142 55.5484 17.8559 55.4209 17.7944Z" fill="currentColor"/>
<path d="M47.2104 33.7096C47.4376 33.0853 47.6648 32.461 47.8924 31.8367C47.9811 31.8656 48.069 31.8941 48.1578 31.923C47.9708 32.5572 47.7833 33.1923 47.5962 33.8265C47.4673 33.7877 47.3389 33.7484 47.2104 33.7096Z" fill="currentColor"/>
<path d="M29.8419 10.6728C29.1281 10.8398 28.4143 11.0064 27.701 11.1735C27.6778 11.0866 27.6546 10.9992 27.6313 10.9122C28.3407 10.7442 29.0495 10.5762 29.7583 10.4082C29.786 10.4965 29.8137 10.5844 29.8419 10.6728Z" fill="currentColor"/>
<path d="M34.3292 26.4796C34.6019 27.525 34.2355 28.1114 33.6313 28.6224C33.8384 27.9854 34.0459 27.3489 34.3292 26.4796Z" fill="currentColor"/>
<path d="M34.5788 38.8776C34.4863 39.7488 34.0137 40.1554 33.1577 40.0964C33.6312 39.6903 34.1048 39.2842 34.5788 38.8776Z" fill="currentColor"/>
<path d="M31.245 37.1938C30.6197 37.6019 29.9944 38.0103 29.3687 38.4183C29.9237 37.9037 30.295 37.0958 31.2626 37.2106C31.2678 37.2151 31.245 37.1938 31.245 37.1938Z" fill="currentColor"/>
<path d="M54.1577 15.9386C54.3858 15.4214 54.6144 14.9046 54.843 14.3877C54.9307 14.4186 55.0179 14.4499 55.1051 14.4807C54.8942 15.011 54.6839 15.5412 54.4735 16.0714C54.3681 16.0272 54.2627 15.9829 54.1577 15.9386Z" fill="currentColor"/>
<path d="M36.7895 36.1434C36.4602 36.6466 36.1309 37.1498 35.8016 37.6531C35.7097 37.5935 35.6183 37.5339 35.5264 37.4744C35.9382 37.0236 36.3497 36.5732 36.7615 36.1225L36.7895 36.1434Z" fill="currentColor"/>
<path d="M35.6012 19.1326C35.2076 19.0674 34.8145 19.0027 34.4209 18.9379C34.4334 18.8499 34.4459 18.7615 34.4584 18.6734C34.8673 18.7227 35.2757 18.7719 35.6841 18.8212C35.6563 18.9252 35.629 19.0291 35.6012 19.1326" fill="currentColor"/>
<path d="M20.0014 45.7653C20.3347 46.0355 20.6675 46.3057 20.9998 46.576C20.9712 46.6119 20.942 46.6478 20.9129 46.6837C20.5734 46.4217 20.234 46.1592 19.8945 45.8977C19.9303 45.8536 19.9656 45.8089 20.0014 45.7653Z" fill="currentColor"/>
<path d="M48.1579 39.2154C47.9955 39.5111 47.8331 39.8068 47.6706 40.1021C47.6225 40.0705 47.5745 40.0385 47.5264 40.0069C47.6723 39.6812 47.8183 39.3564 47.9643 39.0306C48.0289 39.0922 48.0938 39.1538 48.1579 39.2154Z" fill="currentColor"/>
<path d="M30.6575 40.2551C31.0234 39.9488 31.3889 39.643 31.7543 39.3368C31.8015 39.4183 31.8478 39.4994 31.8945 39.581C31.4735 39.7962 31.0524 40.0124 30.6313 40.2276L30.6575 40.2551Z" fill="currentColor"/>
<path d="M42.9473 23.6068C43.0412 23.2375 43.1351 22.8688 43.2291 22.5C43.2932 22.5112 43.3568 22.5229 43.4209 22.5341C43.3472 22.931 43.2735 23.3275 43.1998 23.7245C43.1154 23.6856 43.0316 23.6462 42.9473 23.6068Z" fill="currentColor"/>
<path d="M36.7896 36.1004C36.9631 35.8015 37.1372 35.5025 37.3108 35.2041C37.4002 35.2624 37.4896 35.3213 37.579 35.3791C37.326 35.6274 37.0734 35.8747 36.8209 36.1224L36.7896 36.1004Z" fill="currentColor"/>
<path d="M30.6037 40.2551C30.2816 40.4594 29.9601 40.6631 29.638 40.8674C29.6008 40.7855 29.5636 40.7036 29.5264 40.6217C29.8944 40.5079 30.2625 40.3942 30.6316 40.2819C30.6326 40.2829 30.6037 40.2551 30.6037 40.2551Z" fill="currentColor"/>
<path d="M25.7368 47.4999C25.8937 47.4803 26.0505 47.4608 26.2074 47.4413C26.2083 47.4553 26.2092 47.47 26.2105 47.4846C26.0599 47.5035 25.9092 47.5224 25.759 47.5413C25.7519 47.5273 25.7439 47.5139 25.7368 47.4999Z" fill="currentColor"/>
</svg>
