<svg width="104" height="80" viewBox="0 0 104 80" fill="none" xmlns="http://www.w3.org/2000/svg">
<path fill-rule="evenodd" clip-rule="evenodd" d="M89.3069 1.11092L103.624 23.522C104.212 24.4456 104.102 25.6494 103.354 26.4504L53.955 79.2314C53.4869 79.7327 52.9151 80 52.3234 80C52.2662 80 52.2083 79.9976 52.1488 79.9923C51.5091 79.9786 50.8931 79.7059 50.4524 79.2407L0.656482 26.458C-0.0746789 25.6806 -0.208102 24.54 0.32178 23.6179L13.2074 1.20534C13.6329 0.462189 14.4319 0 15.2904 0H22.063C22.1124 0 22.1599 0.00640869 22.2072 0.0127792C22.2328 0.0162277 22.2583 0.0196686 22.2841 0.0220795C22.3097 0.0195999 22.3352 0.0162277 22.3607 0.0128632C22.4058 0.00691223 22.4507 0.000976562 22.496 0C23.138 0.00457001 23.7388 0.259644 24.1886 0.715736L73.8366 50.9607L98.5703 24.5331L85.9637 4.7985L52.0017 4.7985C50.6766 4.7985 49.5993 3.72185 49.5993 2.39925C49.5993 1.07666 50.6766 0 52.0017 0L87.2804 0C88.1068 0 88.8647 0.415733 89.3069 1.11092ZM70.5529 54.4701L21.4721 4.7985H16.6818L5.37739 24.4638L52.193 74.0868L70.5529 54.4701Z" fill="#B38E6A"/>
</svg>
