<svg width="116" height="80" viewBox="0 0 116 80" fill="none" xmlns="http://www.w3.org/2000/svg">
<g clip-path="url(#clip0_153_361)">
<path d="M65.7457 19.0451C67.7561 17.0262 69 14.2402 69 11.1621C69 4.99773 64.0111 0 57.8576 0C53.9673 0 50.547 2.00075 48.5539 5.02751C48.0245 5.55872 3.66896 60.3252 3.25433 60.9549C1.24391 62.9738 0 65.7606 0 68.837C0 75.0023 4.98887 80 11.1424 80C15.0327 80 18.453 78.0001 20.4461 74.9725C20.9755 74.4413 65.331 19.674 65.7457 19.0451Z" fill="#B38E6A"/>
<path d="M91.7346 45.0463C93.7525 43.0265 95 40.2384 95 37.1575C95 30.9956 90.0069 26 83.8482 26C79.9529 26 76.528 28.0016 74.5332 31.0295C73.9992 31.5647 50.6828 60.3202 50.2654 60.9537C48.2475 62.9735 47 65.7616 47 68.8417C47 75.0044 51.9931 80 58.1518 80C62.0471 80 65.472 77.9984 67.466 74.9705C68 74.4362 91.3172 45.6798 91.7346 45.0463Z" fill="#B38E6A"/>
<path d="M116 11C116 17.0757 111.075 22 105 22C98.9243 22 94 17.0757 94 11C94 4.92513 98.9243 0 105 0C111.075 0 116 4.92513 116 11Z" fill="#B38E6A"/>
<path d="M22 11C22 17.0757 17.0749 22 11 22C4.92513 22 0 17.0757 0 11C0 4.92513 4.92513 0 11 0C17.0749 0 22 4.92513 22 11Z" fill="#B38E6A"/>
</g>
<defs>
<clipPath id="clip0_153_361">
<rect width="116" height="80" fill="white"/>
</clipPath>
</defs>
</svg>
