<svg width="67" height="80" viewBox="0 0 67 80" fill="none" xmlns="http://www.w3.org/2000/svg">
<path fill-rule="evenodd" clip-rule="evenodd" d="M67 30.9913C67 40.505 64.1903 48.0675 58.6499 53.4717C58.1679 53.9419 57.6598 54.3839 57.1401 54.8135C60.5418 61.7312 62.4562 69.5082 62.4562 77.7257V80L49.686 80V77.7257C49.686 71.5021 48.2262 65.6154 45.6409 60.3815C42.36 61.185 38.731 61.5921 34.7604 61.5921H23.1454V57.0443H34.7604C37.848 57.0443 40.6845 56.7734 43.2741 56.2474C36.6495 46.136 25.4977 39.2545 12.7224 38.5205L12.7224 80H0L0 0H4.54382L4.54382 25.6661H8.17859L8.17859 0.487602H34.7604C45.0843 0.487602 53.1203 3.20165 58.6441 8.55368C64.1889 13.9274 67 21.4762 67 30.9913ZM4.54382 30.2139L4.54382 75.4515H8.17859L8.17859 30.2139H4.54382ZM57.8595 75.4515H54.1719C53.8708 69.5894 52.4117 64.0287 50.0233 58.9926C51.1885 58.5267 52.2923 57.9927 53.3454 57.4037C55.9647 62.9216 57.5548 69.0206 57.8595 75.4515ZM12.7224 33.9604V30.269C29.0651 31.0435 43.2676 40.1326 51.1994 53.3927C50.1507 53.984 49.0324 54.5056 47.8411 54.9534C40.5166 42.9473 27.5886 34.7248 12.7224 33.9604ZM34.7604 5.03541C43.864 5.03541 50.8368 7.3191 55.4841 11.822C60.1104 16.306 62.4562 22.755 62.4562 30.9913C62.4562 39.2313 60.109 45.6983 55.479 50.2136C55.3355 50.3539 55.1858 50.4881 55.0361 50.6222C54.9934 50.6606 54.9506 50.6989 54.908 50.7374C46.1446 36.3252 30.5872 26.4913 12.7224 25.7183L12.7224 5.03541H34.7604Z" fill="#B38E6A"/>
</svg>
