<svg width="64" height="80" viewBox="0 0 64 80" fill="none" xmlns="http://www.w3.org/2000/svg">
<g clip-path="url(#clip0_153_339)">
<path fill-rule="evenodd" clip-rule="evenodd" d="M25.4997 38C20.2265 38 14.0378 37.0858 9.47411 33.9333C7.509 32.5752 5.84597 30.8022 4.68704 28.5079C3.56212 26.2799 3 23.6121 3 20.5003C3 15.2685 4.90776 11.0442 8.72661 7.82594C12.5441 4.60911 18.136 3 25.4997 3C28.7037 3 31.6524 3.33676 34.3463 4.00751C36.2074 4.4715 37.9558 5.17337 39.6635 6.05572C44.9513 8.78781 48 14.4601 48 20.5003C48 25.7336 46.0909 29.9579 42.2727 33.1741C38.4539 36.3923 32.864 38 25.4997 38ZM25.4997 5.1222C23.2498 5.1222 21.4934 6.25279 20.2332 8.51605C18.9702 10.7786 18.3407 14.7727 18.3407 20.5003C18.3407 26.2273 18.9702 30.2221 20.2332 32.4853C21.4934 34.7486 23.2498 35.8785 25.4997 35.8785C27.7502 35.8785 29.5046 34.7486 30.7668 32.4853C32.0278 30.2221 32.6593 26.2273 32.6593 20.5003C32.6593 14.7727 32.0278 10.7786 30.7668 8.51605C29.5046 6.25279 27.7502 5.1222 25.4997 5.1222Z" fill="#B38E6A"/>
<path d="M47.6231 47.3204C44.7045 44.2704 40.6721 42.7454 35.523 42.7454L15.9569 42.7454C12.8678 42.7454 10.7213 42.43 9.52085 41.7991C8.57014 41.2986 7.81078 40.4675 7.73424 39.3306C7.6718 38.4097 8.10956 37.7226 8.61445 37.028C5.31047 36.7421 1.75605 38.6634 0.675083 41.9185C-0.805366 46.3755 0.452847 51.3078 4.11469 54.209C6.86007 56.3834 10.8086 57.4695 15.9569 57.4695H35.523C43.7619 57.4695 47.8803 59.7467 47.8803 64.3053C47.8803 67.8812 45.9406 70.8784 42.0619 73.2976C37.7494 75.9869 32.6568 77.2404 27.6481 77.5393C22.2628 77.8616 17.3139 77.0045 12.3213 75.0063C14.3429 73.4771 15.6038 70.9387 15.5816 68.3694C15.5608 65.8008 14.2449 63.2705 12.1541 61.8422C10.0633 60.4139 7.25284 60.1431 4.94992 61.1771C3.3936 61.8751 2.09981 63.1224 1.21154 64.6036C0.356165 66.0298 -0.140675 67.7194 0.0352334 69.383C0.237998 71.3043 1.32567 73.0494 2.7457 74.3289C6.84328 78.0212 13.3438 79.1138 18.5956 79.7028C24.5113 80.3657 30.2935 79.8796 36.0917 78.6426C40.8694 77.6237 45.6801 75.3266 48.7457 71.3123C51.1144 68.2124 52 63.9528 52 60.0985C52 54.63 50.5397 50.3704 47.6231 47.3204Z" fill="#B38E6A"/>
<path d="M64 7.99932C64 12.4178 60.4187 16 56.0003 16C51.582 16 48 12.4178 48 7.99932C48 3.58149 51.582 0 56.0003 0C60.4187 0 64 3.58149 64 7.99932Z" fill="#B38E6A"/>
</g>
<defs>
<clipPath id="clip0_153_339">
<rect width="64" height="80" fill="white"/>
</clipPath>
</defs>
</svg>
