<svg width="616" height="616" viewBox="0 0 616 616" fill="none" xmlns="http://www.w3.org/2000/svg">
<path fill-rule="evenodd" clip-rule="evenodd" d="M613.059 427.029L613.087 427.067C597.998 441.273 574.03 441.53 552.266 441.764C545.662 441.835 539.261 441.904 533.373 442.359C507.881 444.334 488.499 460.385 469.424 476.184C465.212 479.671 461.016 483.146 456.772 486.455C443.673 492.782 430.031 498.157 416.039 501.726C378.101 511.374 340.765 502.291 304.505 482.454C283.728 471.095 264.631 459.458 249.44 439.673C246.281 435.566 243.24 431.402 240.21 427.253C235.382 420.642 230.581 414.069 225.375 407.828C211.198 383.551 199.901 357.741 192.26 330.128C190.576 324.064 188.867 317.994 187.157 311.918C177.483 277.548 167.754 242.983 162.091 208.016C162.66 207.857 163.245 207.895 163.823 208.109C169.747 197.974 178.283 184.582 187.921 182.801C188.986 182.592 190.035 182.64 191.095 182.79C189.51 178.912 188.36 174.656 187.233 170.487C186.035 166.054 184.864 161.72 183.225 158.042C171.987 132.883 134.045 83.2937 104.854 99.1428C100.373 101.576 95.9796 95.0904 99.9309 91.7171C123.082 71.9666 158.826 102.479 175.555 122.984C187.456 137.57 196.425 154.773 201.327 172.959C204.024 182.959 208.07 184.665 214.701 187.461C216.167 188.079 217.759 188.75 219.49 189.576C226.115 192.742 231.142 197.315 236.017 203.009C236.317 202.926 236.637 202.903 236.954 202.88L237.021 202.875C238.777 208.427 241.405 213.903 243.727 218.743C244.049 219.414 244.365 220.073 244.673 220.718C250.652 233.371 255.384 246.242 260.136 259.163C262.639 265.971 265.148 272.793 267.846 279.604C271.141 289.678 275.157 299.427 279.911 308.82C287.148 325.293 295.58 341.55 307.126 354.598C318.101 367.028 332.67 373.954 347.133 380.365C356.796 385.887 366.881 390.377 377.23 393.72C392.319 399.801 407.836 404.354 423.565 405.115C441.261 405.977 458.058 401.615 474.734 397.283C477.707 396.511 480.677 395.74 483.647 394.999C507.172 389.135 529.968 385.089 554.922 389.976C567.631 392.461 581.875 395.569 592.905 404.115C600.811 410.24 606.982 418.699 613.059 427.029ZM189.311 192.881C190.231 195.711 190.883 198.638 191.507 201.537C191.705 202.467 191.87 203.416 192.036 204.369L192.036 204.37C192.365 206.256 192.696 208.158 193.289 209.96C185.962 211.005 178.538 211.724 171.021 211.986C173.891 207.304 177.65 201.738 181.613 197.784C181.384 198.874 181.336 200.009 181.512 201.231C181.778 203.09 182.787 206.419 184.969 206.645C185.795 206.743 186.473 206.511 186.855 205.71C187.354 204.664 186.955 203.389 186.578 202.183L186.578 202.183C186.444 201.756 186.313 201.338 186.226 200.941C185.912 199.535 185.809 197.931 185.979 196.554C186.079 195.744 185.774 195.121 185.319 194.711C186.659 193.822 188.003 193.119 189.311 192.881ZM197.769 209.299C201.211 208.738 204.633 208.111 208.059 207.352C207.276 206.495 206.471 205.59 205.65 204.669L205.65 204.669L205.649 204.668C201.454 199.959 196.868 194.81 192.9 193.239C195.306 198.329 197.683 203.936 197.769 209.299ZM603.456 428.855C602.742 431.472 601.111 433.708 598.584 434.952C589.776 439.277 580.169 438.579 570.439 437.873C568.6 437.739 566.757 437.605 564.914 437.505C564.345 437.482 563.778 437.461 563.212 437.44L563.156 437.438C562.796 437.425 562.437 437.411 562.077 437.397C559.822 437.752 557.556 438.097 555.286 438.441L555.26 438.445L555.259 438.445L555.258 438.446L555.258 438.446C552.828 438.815 550.394 439.185 547.961 439.569C526.032 435.295 502.237 449.571 482.121 461.64C475.127 465.835 468.578 469.765 462.707 472.555C440.931 482.897 417.031 493.983 392.493 496.65C368.662 499.251 343.529 491.77 320.696 481.675C270.622 459.489 234.016 414.922 210.719 363.373C200.06 339.839 192.038 315.211 185.43 290.406C182.768 280.454 180.676 270.207 178.578 259.925L178.578 259.925C175.87 246.657 173.151 233.333 169.178 220.516C185.219 220.907 200.925 219.598 216.344 216.637C216.5 216.69 216.659 216.745 216.818 216.8L216.975 216.854C217.042 216.877 217.108 216.9 217.174 216.922C217.323 216.863 217.472 216.804 217.621 216.746C217.995 216.599 218.368 216.452 218.735 216.299C218.948 216.212 219.153 216.158 219.358 216.104C219.465 216.076 219.572 216.048 219.679 216.015C219.669 216.004 219.66 215.996 219.631 216.004C219.767 215.962 219.877 215.937 219.991 215.917C220.416 215.797 220.824 215.704 221.251 215.631C225.638 214.695 230.036 213.633 234.375 212.422C234.404 212.411 234.429 212.397 234.453 212.384C234.483 212.368 234.509 212.354 234.532 212.351C237.901 219.542 240.558 226.885 242.892 234.315C242.789 234.241 242.668 234.189 242.546 234.137C242.512 234.123 242.479 234.109 242.446 234.094C242.416 234.081 242.387 234.067 242.358 234.053L242.358 234.053L242.358 234.053L242.358 234.054L242.358 234.054C242.654 234.714 242.95 235.373 243.223 236.055C243.253 236.069 243.287 236.08 243.321 236.09L243.355 236.1C243.405 236.114 243.455 236.129 243.498 236.149C243.65 236.607 243.779 237.076 243.91 237.551L243.91 237.552L243.91 237.553C243.935 237.641 243.959 237.729 243.983 237.817C248.376 248.492 252.111 259.529 255.847 270.569C264.285 295.505 272.728 320.456 288.777 341.298C311.991 371.382 347.321 385.057 379.984 397.338C417.808 411.596 450.438 407.875 487.355 401.528C492.238 400.678 497.12 400.193 502.042 399.928C502.164 399.913 502.289 399.89 502.414 399.868C502.539 399.845 502.664 399.822 502.786 399.807C503.582 399.694 504.399 399.601 505.177 399.514C521.744 392.515 540.681 389.524 559.053 393.256C574.162 396.322 595.203 403.602 602.65 420.075C603.279 421.476 603.666 422.937 603.81 424.382C605.143 425.488 606.465 426.615 607.76 427.805C606.92 428.029 606.074 428.229 605.228 428.429L605.227 428.429L605.225 428.429L605.224 428.43C604.634 428.569 604.044 428.708 603.456 428.855ZM220.288 204.295C218.948 204.684 217.622 205.041 216.291 205.393L216.015 205.013C215.124 203.786 214.154 202.448 213.104 201.069C215.514 202.023 217.924 203.022 220.288 204.295Z" fill="currentColor"/>
<path d="M429.619 474.588C397.044 487.145 358.473 491.711 324.32 473.07C323.137 472.432 323.919 470.719 325.085 471.251C360.83 486.901 394.314 480.47 428.837 472.537C430.081 472.238 430.806 474.142 429.619 474.588Z" fill="currentColor"/>
<path d="M376.287 475.666C375.643 475.695 375.496 474.606 376.154 474.546C387.98 473.494 399.312 471.006 410.713 468.273C411.223 468.155 411.542 468.967 411.041 469.139C399.966 473.006 388.185 474.775 376.287 475.666Z" fill="currentColor"/>
<path d="M460.029 463.922C459.791 464.008 459.634 463.619 459.865 463.527C471.761 458.834 483.434 453.224 495.697 449.499C496.622 449.222 497.146 450.671 496.282 451.054C484.616 456.255 472.089 459.671 460.029 463.922Z" fill="currentColor"/>
<path d="M192.969 271.984C188.536 260.227 185.551 247.75 182.741 235.629C182.491 234.61 184.014 234.37 184.359 235.348C188.586 247.079 192.338 259.6 193.849 271.824C193.934 272.362 193.18 272.511 192.969 271.984Z" fill="currentColor"/>
<path d="M222.142 348.731C214.206 331.439 207.307 313.964 201.69 295.989C201.654 295.909 201.778 295.859 201.794 295.963C208.114 313.684 214.883 331.289 222.378 348.662C222.457 348.828 222.221 348.897 222.142 348.731Z" fill="currentColor"/>
<path d="M288.958 439.382C267.676 430.19 254.399 409.22 242.026 389.271C241.913 389.079 242.123 388.936 242.26 389.113C255.564 409.246 268.815 426.423 289.155 438.441C289.654 438.744 289.511 439.621 288.958 439.382Z" fill="currentColor"/>
<path d="M268.295 437.972C243.027 415.195 225.963 386.743 215.426 354.321C215.192 353.642 216.129 353.333 216.365 354.014C226.854 385.766 245.36 414.058 268.49 437.722C268.65 437.882 268.453 438.13 268.295 437.972Z" fill="currentColor"/>
<path d="M308.67 463.392C305.541 460.928 302.792 458.842 298.923 458.009C297.716 457.75 298.045 455.755 299.252 456.014C303.13 456.856 307.338 458.835 309.815 462.308C310.395 463.125 309.359 463.939 308.67 463.392Z" fill="currentColor"/>
<path d="M187.382 265.923C181.277 254.462 176.974 241.049 176.651 228.273C176.644 227.533 177.537 227.511 177.702 228.225C180.773 240.91 183.776 253.116 188.228 265.487C188.421 266.046 187.666 266.482 187.382 265.923Z" fill="currentColor"/>
<path d="M295.783 457.308C285.908 454.355 277.864 446.667 271.31 438.535C270.355 437.326 272.276 435.48 273.271 436.679C280.027 444.758 288.088 449.97 296.408 455.948C296.998 456.385 296.449 457.516 295.783 457.308Z" fill="currentColor"/>
<path d="M389.358 490.265C388.898 490.256 388.806 489.532 389.241 489.516C414.694 487.566 437.635 480.306 459.17 467.576C459.674 467.268 460.195 468.059 459.727 468.404C439.272 483.297 415.297 490.698 389.358 490.265Z" fill="currentColor"/>
<path d="M332.185 466.886C331.695 466.904 331.242 466.886 330.788 466.869C330.102 466.836 330.42 465.557 331.112 465.668C331.555 465.747 331.995 465.824 332.402 465.94C332.99 466.02 332.737 466.93 332.185 466.886Z" fill="currentColor"/>
<path d="M202.539 336.264C195.088 317.432 191.915 296.32 188.673 276.545C188.495 275.383 190.096 275.345 190.317 276.456C194.561 296.296 201 315.944 204.574 335.864C204.808 337.174 203.001 337.428 202.539 336.264Z" fill="currentColor"/>
<path d="M608.439 425.929C608.369 426.059 608.342 426.186 608.24 426.311C600.427 435.658 589.084 437.468 577.232 437.232C561.156 436.946 546.139 437.492 531.005 442.185C503.13 450.835 480.262 468.168 455.667 483.092C454.396 483.863 453.053 481.521 454.178 480.605C474.749 463.834 498.345 448.591 523.349 439.611C535.109 435.399 547.528 432.619 560.283 432.171C575.35 431.629 593.768 435.954 604.556 423.29C604.878 422.913 605.262 422.743 605.66 422.655C556.032 360.795 480.086 409.234 423.039 411.307C396.98 412.245 369.259 396.457 345.608 383.469C322.284 370.671 297.353 354.18 283.281 329.535C282.459 328.079 284.383 327.28 285.337 328.28C309.89 354.465 335.714 371.85 366.915 386.626C381.187 393.366 396.533 401.907 411.759 403.839C428.52 405.944 445.725 401.234 461.486 397.576C509.064 386.533 573.959 367.206 611.603 422.315C613.39 424.932 610.55 427.64 608.439 425.929Z" fill="currentColor"/>
<path d="M410.402 421.089C392.728 416.745 375.189 410.067 358.335 402.01C341.759 394.097 324.346 384.761 309.748 372.587C309.544 372.428 309.708 372.054 309.936 372.192C325.779 381.976 340.992 392.297 357.618 400.306C374.851 408.652 392.478 414.744 410.472 419.813C411.221 420.022 411.175 421.278 410.402 421.089Z" fill="currentColor"/>
<path d="M410.253 427.561C386.275 426.579 361.402 415.511 340.465 402.055C340.069 401.797 340.415 401.081 340.811 401.339C363.101 414.994 385.855 421.31 410.311 426.835C410.739 426.94 410.684 427.577 410.253 427.561Z" fill="currentColor"/>
<path d="M359.386 419.615C359.002 419.369 359.352 418.66 359.738 418.908C373.356 426.957 387.33 429.61 402.261 430.181C402.738 430.199 402.754 430.997 402.31 431.059C387.677 433.086 372.396 427.931 359.386 419.615Z" fill="currentColor"/>
<path d="M598.299 417.375C595.947 415.375 593.539 413.601 591.107 411.923C568.987 400.799 546.692 396.356 522.991 398.628C494.714 401.345 468.314 412.147 442.492 422.613C441.842 422.876 441.353 421.749 441.997 421.479C452.642 416.878 463.341 412.286 474.264 408.237C454.353 413.751 434.622 419.764 414.385 424.085C413.856 424.195 413.575 423.23 414.088 423.058C431.451 417.141 449.343 412.53 467.036 407.536C483.127 402.996 499.206 398.077 515.788 395.305C541.615 390.96 572.475 392.815 595.059 412.154C595.587 412.527 596.126 412.875 596.646 413.262C596.855 413.416 596.902 413.633 596.893 413.852C597.674 414.568 598.47 415.246 599.226 416.006C600.016 416.801 599.189 418.137 598.299 417.375Z" fill="currentColor"/>
<path d="M589.811 414.764C576.791 408.441 563.577 403.799 549.777 402.425C535.111 400.983 521.827 403.523 508.33 407.509C507.848 407.655 507.519 406.922 507.968 406.699C531.741 394.744 565.286 398.137 590.202 413.519C590.932 413.966 590.613 415.154 589.811 414.764Z" fill="currentColor"/>
<path d="M578.163 416.951C574.616 416.102 571.218 414.328 567.653 413.405C564.081 412.479 560.483 411.969 556.864 411.775C556.238 411.759 556.181 410.623 556.793 410.626C563.63 410.615 572.515 411.266 578.675 415.44C579.356 415.9 578.928 417.134 578.163 416.951Z" fill="currentColor"/>
<path d="M343.31 425.531C342.794 425.367 342.81 424.501 343.35 424.644C353.012 427.289 362.704 429.787 372.46 431.333C382.959 433.006 392.889 432.521 403.213 432.164C403.838 432.127 404.238 433.145 403.608 433.354C385.174 439.502 362.316 431.208 343.31 425.531Z" fill="currentColor"/>
<path d="M351.214 438.201C350.613 438.018 350.63 437.013 351.279 437.151C368.358 440.894 384.205 439.779 400.512 435.687C401.097 435.528 401.363 436.538 400.836 436.754C385.55 443.03 367.7 442.93 351.214 438.201Z" fill="currentColor"/>
<path d="M472.806 416.52C465.684 419.211 458.67 422.189 451.567 424.987C437.765 430.408 423.787 434.8 408.482 435.089C407.912 435.101 407.705 434.177 408.287 434.132C424.43 432.935 439.35 427.423 453.947 421.454C466.859 416.174 480.733 408.585 495.157 407.909C495.709 407.879 496.033 408.741 495.489 408.958C488.123 411.897 480.255 413.708 472.806 416.52Z" fill="currentColor"/>
<path d="M441.757 433.304C441.057 433.495 440.452 432.311 441.182 432.061C453.996 427.776 466.177 422.234 478.896 417.765C479.655 417.5 480.182 418.695 479.524 419.061C467.996 425.523 454.597 429.669 441.757 433.304Z" fill="currentColor"/>
<path d="M440.202 466.505C439.724 466.713 439.208 465.923 439.681 465.617C453.409 456.812 468.274 447.632 483.272 441.334C483.92 441.066 484.564 442.077 483.96 442.526C470.886 452.26 455.03 460.082 440.202 466.505Z" fill="currentColor"/>
<path d="M309.283 369.182C289.076 357.445 275.763 334.581 266.591 313.065C254.696 285.221 248.051 255.511 233.256 228.821C232.922 228.172 233.843 227.607 234.233 228.222C262.569 274.173 264.726 333.32 310.085 367.507C310.98 368.176 310.263 369.757 309.283 369.182Z" fill="currentColor"/>
<path d="M334.64 410.027C305.059 398.3 275.296 366.419 265.621 334.245C265.451 333.715 266.189 333.596 266.439 334.027C274.401 349.427 282.384 364.038 294.017 376.934C306.162 390.386 320.014 399.865 335.047 408.766C335.802 409.206 335.462 410.354 334.64 410.027Z" fill="currentColor"/>
<path d="M342.736 420.844C326.182 416.002 310.397 403.651 297.801 391.196C297.095 390.49 297.892 389.264 298.64 389.965C312.342 402.727 327.337 410.712 343.137 419.645C343.876 420.055 343.496 421.086 342.736 420.844Z" fill="currentColor"/>
<path d="M334.964 426.593C328.516 425.967 321.451 420.227 316.49 415.834C315.617 415.055 316.548 413.667 317.471 414.401C320.434 416.844 323.596 418.964 326.907 420.761C329.725 422.253 332.819 423.218 335.492 424.991C336.296 425.512 335.738 426.658 334.964 426.593Z" fill="currentColor"/>
<path d="M230.71 223.133C224.909 221.671 219.019 219.17 213.279 217.108C212.474 216.84 212.447 215.532 213.259 215.807C219.084 217.83 225.091 219.54 230.829 222.137C231.377 222.396 231.268 223.278 230.71 223.133Z" fill="currentColor"/>
<path d="M235.063 229.311C225.182 226.82 215.321 223.508 205.459 220.757C204.924 220.595 204.961 219.697 205.536 219.804C215.325 221.361 226.113 223.915 235.314 228.158C235.865 228.429 235.697 229.477 235.063 229.311Z" fill="currentColor"/>
<path d="M241.085 238.371C227.884 234.466 214.744 229.674 201.546 225.637C200.985 225.482 200.986 224.581 201.57 224.713C214.671 227.661 228.734 231.526 241.281 237.303C241.836 237.543 241.697 238.532 241.085 238.371Z" fill="currentColor"/>
<path d="M246.365 247.146C233.053 242.873 220.055 237.889 206.559 234.643C205.989 234.492 206.017 233.542 206.613 233.671C219.95 236.618 233.932 240.211 246.555 246.544C246.938 246.741 246.737 247.285 246.365 247.146Z" fill="currentColor"/>
<path d="M246.413 257.14C238.266 254.727 230.223 251.479 222.163 248.636C221.64 248.442 221.935 247.609 222.453 247.798C230.524 250.604 238.775 253.074 246.695 256.342C247.192 256.557 246.919 257.271 246.413 257.14Z" fill="currentColor"/>
<path d="M248.509 265.905C238.995 263.154 229.558 259.338 220.163 256.002C219.509 255.787 219.837 254.798 220.483 255.004C229.847 258.265 239.445 261.101 248.694 264.905C249.193 265.14 249.058 266.06 248.509 265.905Z" fill="currentColor"/>
<path d="M254.008 275.656C244.23 273.017 234.497 268.409 224.788 265.138C224.273 264.973 224.431 264.036 224.946 264.201C234.559 267.2 245.057 269.902 254.162 274.847C254.548 275.057 254.478 275.776 254.008 275.656Z" fill="currentColor"/>
<path d="M259.449 283.709C249.214 282.557 238.602 278.252 228.571 275.47C227.776 275.239 227.863 273.867 228.688 274.08C238.793 276.796 249.944 278.44 259.644 282.727C260.158 282.959 259.986 283.775 259.449 283.709Z" fill="currentColor"/>
<path d="M258.961 290.945C250.936 289.939 242.653 287.005 234.882 283.984C234.143 283.716 234.511 282.586 235.222 282.87C243.116 285.842 251.028 287.634 258.999 289.957C259.591 290.121 259.582 291.01 258.961 290.945Z" fill="currentColor"/>
<path d="M259.089 298.9C255.571 298.133 252.064 296.835 248.575 295.737C247.538 295.421 236.28 291.649 236.846 294.109C236.952 294.531 236.536 294.655 236.252 294.462C236.166 294.511 236.058 294.493 236.018 294.363C235.919 294.128 235.817 293.891 235.716 293.655C235.629 293.477 235.881 293.369 235.972 293.551C235.979 293.558 235.986 293.565 235.996 293.574C235.677 290.82 239.337 291.729 241.113 292.242C247.116 293.962 253.385 295.541 259.257 297.94C259.778 298.146 259.634 298.994 259.089 298.9Z" fill="currentColor"/>
<path d="M263.186 308.308C255.767 307.176 248.267 304.779 240.876 302.9C240.051 302.667 240.08 301.285 240.93 301.497C248.386 303.303 256.022 304.698 263.371 307.263C263.946 307.473 263.754 308.375 263.186 308.308Z" fill="currentColor"/>
<path d="M270.476 318.189C262.759 316.821 254.989 314.075 247.373 311.908C246.665 311.722 246.721 310.545 247.431 310.734C255.13 312.746 263.109 314.28 270.679 317.064C271.291 317.298 271.074 318.313 270.476 318.189Z" fill="currentColor"/>
<path d="M277.022 326.796C266.888 325.725 256.852 322.967 247.008 319.886C246.331 319.678 246.697 318.635 247.367 318.836C257.188 321.8 267.143 323.773 277.061 326.13C277.471 326.212 277.438 326.836 277.022 326.796Z" fill="currentColor"/>
<path d="M281.498 334.623C273.154 331.805 264.947 328.859 256.429 326.973C255.93 326.872 255.969 326.071 256.465 326.169C264.919 327.992 273.617 330.279 281.703 334.033C282.062 334.215 281.877 334.737 281.498 334.623Z" fill="currentColor"/>
<path d="M292.596 344.902C280.498 342.511 268.381 338.921 256.35 335.826C255.802 335.687 255.823 334.801 256.389 334.913C268.439 337.891 280.658 340.403 292.625 344.069C293.125 344.206 293.111 345.009 292.596 344.902Z" fill="currentColor"/>
<path d="M297.41 350.657C285.372 349.919 273.202 347.243 261.34 344.226C260.796 344.098 260.855 343.185 261.402 343.315C273.403 346.193 285.382 347.752 297.48 349.57C298.144 349.678 298.059 350.704 297.41 350.657Z" fill="currentColor"/>
<path d="M265.323 352.763C264.642 352.49 265.005 351.448 265.665 351.7C280.134 356.833 293.532 357.588 308.118 357.854C308.975 357.85 309.248 359.12 308.401 359.269C294.588 361.635 279.002 358.103 265.323 352.763Z" fill="currentColor"/>
<path d="M280.754 368.812C280.108 368.813 280.181 367.776 280.822 367.77C295.226 368.064 309.168 366.464 323.389 365.234C323.764 365.192 323.857 365.748 323.512 365.819C309.702 368.801 294.993 369.081 280.754 368.812Z" fill="currentColor"/>
<path d="M282.153 376.748C281.553 376.737 281.315 375.774 281.949 375.729C300.52 374.681 319.108 372.789 337.707 372.086C338.368 372.068 338.572 373.088 337.923 373.208C320.096 376.541 300.598 377.114 282.153 376.748Z" fill="currentColor"/>
<path d="M290.503 383.946C289.832 383.865 289.718 382.616 290.417 382.633C308.51 382.97 324.94 380.325 342.343 376.974C342.962 376.867 343.305 377.936 342.711 378.159C326.807 384.191 307.872 385.465 290.503 383.946Z" fill="currentColor"/>
<path d="M293.708 394.171C293.01 394.065 293.047 392.964 293.756 393.036C314.345 395.744 332.695 390.57 352.105 386.683C352.668 386.564 352.997 387.575 352.443 387.75C333.93 393.351 313.749 397.241 293.708 394.171Z" fill="currentColor"/>
<path d="M310.355 403.159C309.801 403.196 309.607 402.275 310.181 402.214C328.063 400.746 345.053 396.888 362.515 393.684C363.016 393.595 363.309 394.477 362.829 394.633C346.277 400.02 327.975 401.93 310.355 403.159Z" fill="currentColor"/>
<path d="M311.716 406.512C310.955 406.384 310.998 405.163 311.772 405.261C333.036 408.386 352.109 399.622 371.791 395.165C372.568 394.995 373.031 396.45 372.277 396.689C353.538 402.765 332.432 409.903 311.716 406.512Z" fill="currentColor"/>
<path d="M323.873 417.757C322.982 417.967 322.681 416.427 323.56 416.206C338.797 412.413 353.336 407.005 368.242 402.286C368.874 402.093 369.355 403.078 368.733 403.373C354.625 410.037 339.129 414.122 323.873 417.757Z" fill="currentColor"/>
<path d="M181.562 221.074C180.999 221.342 180.603 220.377 181.166 220.109C185.676 217.927 190.566 216.255 195.557 215.909C196.057 215.884 196.188 216.671 195.672 216.768C190.765 217.679 186.118 218.85 181.562 221.074Z" fill="currentColor"/>
<path d="M176.935 228.959C176.446 229.153 176.117 228.369 176.569 228.184C190.087 222.42 204.964 218.924 219.918 218.871C220.496 218.857 220.687 219.775 220.1 219.825C205.11 221.162 190.939 223.863 176.935 228.959Z" fill="currentColor"/>
<path d="M335.385 425.228C346.457 415.429 359.044 406.608 373.018 401.806C373.553 401.627 373.936 402.456 373.405 402.728C360.078 409.292 347.388 416.181 335.97 425.992C335.54 426.364 334.981 425.583 335.385 425.228Z" fill="currentColor"/>
<path d="M336.424 436.775C350.227 424.417 366.484 412.389 384.069 406.342C384.543 406.184 384.85 406.898 384.417 407.142C367.851 416.467 351.692 425.114 336.975 437.507C336.58 437.834 336.042 437.116 336.424 436.775Z" fill="currentColor"/>
<path d="M345.852 440.76C358.535 428.401 373.688 416.049 390.452 410.234C391.065 410.026 391.429 410.938 390.884 411.259C375.22 420.546 359.981 428.889 346.433 441.523C346.034 441.9 345.46 441.143 345.852 440.76Z" fill="currentColor"/>
<path d="M355.577 443.95C367.816 431.702 382.081 419.613 397.873 412.875C398.385 412.659 398.915 413.507 398.413 413.824C383.534 423.432 369.232 432.389 356.38 445.026C355.782 445.612 355.008 444.519 355.577 443.95Z" fill="currentColor"/>
<path d="M370.674 444.06C382.819 432.797 396.103 420.996 411.05 413.893C411.417 413.717 411.793 414.319 411.465 414.579C398.144 424.939 384.133 433.793 371.611 445.315C370.95 445.921 370.015 444.669 370.674 444.06Z" fill="currentColor"/>
<path d="M383.091 446.402C393.306 435.331 404.925 423.98 418.495 417.309C419.048 417.044 419.659 418.065 419.179 418.449C407.15 428.07 394.942 436.558 384.419 448.094C383.658 448.925 382.328 447.231 383.091 446.402Z" fill="currentColor"/>
<path d="M395.955 446.074C406.489 434.338 418.795 423.499 432.696 416.19C433.063 416.004 433.496 416.713 433.156 416.973C420.637 426.631 408.382 436.047 397.039 447.204C396.504 447.729 395.452 446.632 395.955 446.074Z" fill="currentColor"/>
<path d="M410.012 444.679C418.878 432.045 430.173 420.571 444.143 414.126C444.825 413.812 445.694 415.134 445.046 415.572C432.213 424.149 420.843 433.149 411.758 446.154C411.091 447.116 409.342 445.638 410.012 444.679Z" fill="currentColor"/>
<path d="M427.924 436.948C437.123 427.57 447.122 418.768 458.388 412.17C458.811 411.925 459.301 412.727 458.89 413.029C448.294 420.743 437.994 428.53 428.662 437.909C428.174 438.401 427.46 437.42 427.924 436.948Z" fill="currentColor"/>
<path d="M441.622 437.471C452.483 424.754 464.989 412.611 479.9 405.012C480.403 404.757 481.014 405.725 480.557 406.07C467.225 416.184 454.137 425.873 442.876 438.547C442.331 439.162 441.048 438.146 441.622 437.471Z" fill="currentColor"/>
<path d="M455.006 438.658C461.621 431.897 468.19 425.091 474.925 418.452C480.548 412.906 486.568 407.128 494.028 404.364C494.686 404.122 495.445 405.197 494.786 405.618C480.085 414.875 468.34 427.538 455.82 439.742C455.273 440.276 454.47 439.203 455.006 438.658Z" fill="currentColor"/>
<path d="M464.262 438.033C477.523 423.288 493.332 408.408 511.287 400.358C511.759 400.148 512.229 400.936 511.779 401.259C495.364 413.077 479.488 423.798 465.643 439.14C464.932 439.93 463.529 438.845 464.262 438.033Z" fill="currentColor"/>
<path d="M484.452 427.746C496.37 416.503 509.319 405.61 523.952 398.309C524.103 398.233 524.252 398.291 524.363 398.402C528.067 396.293 531.908 394.503 535.931 393.304C536.355 393.182 536.856 393.865 536.417 394.152C524.353 402.025 511.822 408.114 501.157 418.157C500.736 418.554 500.114 417.705 500.532 417.305C501.966 415.924 503.467 414.518 504.981 413.126C498.299 418.115 491.77 423.348 485.585 429.197C484.837 429.903 483.704 428.452 484.452 427.746Z" fill="currentColor"/>
<path d="M508.059 420.178C519.887 410.13 532.408 399.265 545.927 391.925C546.538 391.593 547.076 392.58 546.527 393.014C534.212 402.809 521.01 411.161 508.842 421.282C508.171 421.846 507.392 420.747 508.059 420.178Z" fill="currentColor"/>
<path d="M521.569 418.253C531.76 409.35 543.554 400.273 556.29 395.565C556.975 395.311 557.746 396.437 557.064 396.876C545.338 404.335 533.514 410.785 522.691 419.739C521.87 420.422 520.767 418.954 521.569 418.253Z" fill="currentColor"/>
<path d="M533.805 418.525C543.363 411.186 554.035 403.444 565.48 399.614C565.93 399.463 566.446 400.175 565.974 400.47C555.547 407.007 544.745 412.344 534.857 419.934C534.049 420.552 532.974 419.165 533.805 418.525Z" fill="currentColor"/>
<path d="M540.685 423.232C551.352 415.192 563.403 406.671 576.238 402.731C577.03 402.485 577.519 403.614 576.813 404.027C564.978 410.919 552.885 416.411 541.772 424.678C540.947 425.285 539.844 423.869 540.685 423.232Z" fill="currentColor"/>
<path d="M550.522 423.89C560.584 415.854 572.849 406.868 585.712 404.213C586.334 404.083 586.511 405.029 586.06 405.295C580.673 408.485 574.66 410.569 569.164 413.602C562.986 417.011 557.199 420.962 551.612 425.336C550.812 425.959 549.707 424.543 550.522 423.89Z" fill="currentColor"/>
<path d="M594.48 413.026C590.194 411.093 581.088 417.036 577.578 418.722C572.447 421.189 567.443 423.861 562.568 426.799C561.768 427.271 560.815 425.681 561.631 425.18C568.799 420.766 576.094 416.692 583.801 413.339C587.158 411.878 591.83 408.428 595.124 412.072C595.566 412.564 595.002 413.263 594.48 413.026Z" fill="currentColor"/>
<path d="M603.185 416.075C602.548 414.7 575.199 428.441 572.632 429.778C571.593 430.319 570.841 428.544 571.857 427.98C580.376 423.255 589.075 418.914 598.06 415.203C599.66 414.544 604.335 411.873 604.847 415.6C604.988 416.666 603.635 417.065 603.185 416.075Z" fill="currentColor"/>
<path d="M597.784 429.319C595.576 429.927 593.416 430.678 591.275 431.522C590 432.029 589.14 429.961 590.425 429.431C594.162 427.893 598.836 425.753 602.912 425.971C603.828 426.02 603.959 427.433 603.178 427.8C601.473 428.6 599.578 428.822 597.784 429.319Z" fill="currentColor"/>
<path d="M593.474 431.818C592.83 431.578 593.061 430.494 593.723 430.604C595.887 430.963 598.069 430.97 600.186 430.544C602.342 430.103 604.119 429.044 606.142 428.27C606.807 428.02 607.718 428.948 607.137 429.598C603.82 433.307 597.946 433.479 593.474 431.818Z" fill="currentColor"/>
</svg>
