<svg width="67" height="76" viewBox="0 0 67 76" fill="none" xmlns="http://www.w3.org/2000/svg">
<path d="M65.56 4.2C65.56 5.85333 64.9467 7.77333 63.72 9.96C62.5467 12.0933 60.7867 14.36 58.44 16.76C56.1467 19.16 53.32 21.64 49.96 24.2C46.6 26.7067 42.7867 29.16 38.52 31.56C37.0267 34.28 35.6933 36.76 34.52 39C33.4 41.1867 32.3067 43.5067 31.24 45.96C31.1333 46.2267 31.1067 46.3867 31.16 46.44C31.2133 46.44 31.32 46.36 31.48 46.2C32.8133 44.6 34.3867 42.9733 36.2 41.32C38.0133 39.6133 39.8533 38.3333 41.72 37.48C42.04 37.3733 42.28 37.32 42.44 37.32C42.8667 37.32 43.1867 37.5067 43.4 37.88C43.6667 38.2533 43.8 38.5467 43.8 38.76C43.8 38.9733 43.6667 39.4533 43.4 40.2C43.1333 40.9467 42.7867 41.8 42.36 42.76C41.9333 43.72 41.4533 44.76 40.92 45.88C40.44 46.9467 39.96 47.96 39.48 48.92C39 49.8267 38.44 50.8933 37.8 52.12C37.16 53.2933 36.4933 54.4667 35.8 55.64C35.1067 56.8667 34.4133 58.0133 33.72 59.08C33.08 60.2 32.4667 61.16 31.88 61.96C29.5867 65.16 27.24 67.72 24.84 69.64C22.4933 71.6133 19.9867 73.0533 17.32 73.96C14.8667 74.8133 12.52 75.24 10.28 75.24C8.78667 75.24 7.34667 75.0533 5.96 74.68C4.52 74.36 3.21333 73.8267 2.04 73.08C1.66667 72.8133 1.45333 72.52 1.4 72.2C1.29333 71.9333 1.21333 71.5867 1.16 71.16C1.16 70.9467 1.13333 70.6267 1.08 70.2C1.02667 69.8267 0.973333 69.4267 0.92 69C0.866667 68.6267 0.813334 68.2533 0.76 67.88C0.706667 67.5067 0.68 67.24 0.68 67.08C0.68 66.6 0.893334 66.4133 1.32 66.52C1.32 67.1067 1.48 67.8267 1.8 68.68C2.06667 69.5333 2.6 70.3867 3.4 71.24C4.14667 72.0933 5.18667 72.8133 6.52 73.4C7.8 73.9867 9.42667 74.28 11.4 74.28C13.0533 74.28 14.9467 73.96 17.08 73.32C19.6933 72.5733 22.04 71.16 24.12 69.08C26.2 67 28.2 64.52 30.12 61.64C31.08 60.2 32.04 58.5733 33 56.76C33.96 55 34.84 53.2667 35.64 51.56C36.44 49.8533 37.1067 48.3333 37.64 47C38.2267 45.6133 38.6 44.6533 38.76 44.12C39.1333 43.0533 39.3733 42.2533 39.48 41.72C39.5867 41.1333 39.64 40.7067 39.64 40.44C39.64 40.0667 39.5067 39.88 39.24 39.88C39.0267 39.88 38.3867 40.3067 37.32 41.16C36.3067 41.96 35.2133 42.9733 34.04 44.2C32.92 45.3733 31.9067 46.68 31 48.12C30.0933 49.5067 29.64 50.8133 29.64 52.04C29.64 52.4667 29.6667 52.84 29.72 53.16C29.7733 53.48 29.8 53.6933 29.8 53.8C29.8 54.0667 29.4 54.3067 28.6 54.52C27.8533 54.7333 27.1067 55.0533 26.36 55.48C26.1467 55.48 26.04 55.2667 26.04 54.84C26.04 54.2 26.04 53.6933 26.04 53.32C26.04 52.8933 26.0933 52.4133 26.2 51.88C26.36 51.2933 26.6 50.6 26.92 49.8C27.2933 49 27.8533 47.9067 28.6 46.52C29.3467 45.08 30.3067 43.2667 31.48 41.08C32.6533 38.84 34.12 36.0933 35.88 32.84C33.6933 33.96 31.32 35 28.76 35.96C26.2 36.92 23.48 37.72 20.6 38.36C20.12 39.16 19.5333 40.1733 18.84 41.4C18.1467 42.5733 17.48 43.8267 16.84 45.16C16.2533 46.44 15.7467 47.72 15.32 49C14.8933 50.28 14.68 51.4 14.68 52.36C14.68 53.2667 14.7867 53.9333 15 54.36C15.2133 54.7867 15.6667 55 16.36 55C17.1067 55 17.8533 54.84 18.6 54.52C19.4 54.2 20.4133 53.6933 21.64 53C21.8 52.8933 21.9333 52.92 22.04 53.08C22.1467 53.1867 22.1467 53.32 22.04 53.48C18.52 55.6133 15.6933 56.68 13.56 56.68C12.92 56.68 12.36 56.52 11.88 56.2C11.4 55.88 11.16 55 11.16 53.56C11.16 52.92 11.3733 52.04 11.8 50.92C12.28 49.7467 12.84 48.4667 13.48 47.08C14.1733 45.6933 14.8933 44.28 15.64 42.84C16.3867 41.3467 17.0533 39.96 17.64 38.68C16.52 38.9467 15.1333 39.16 13.48 39.32C11.8267 39.4267 10.3333 39.5067 9 39.56C8.78667 39.56 8.68 39.48 8.68 39.32C8.68 39 9 38.84 9.64 38.84C10.2267 38.84 10.9467 38.84 11.8 38.84C12.6533 38.7867 13.48 38.7333 14.28 38.68C15.1333 38.5733 15.9067 38.4667 16.6 38.36C17.3467 38.2533 17.8267 38.1467 18.04 38.04C18.52 37.2933 19.0533 36.4667 19.64 35.56C20.2267 34.6533 20.8133 33.7733 21.4 32.92C21.9867 32.0133 22.52 31.2133 23 30.52C23.5333 29.8267 23.9333 29.3733 24.2 29.16C24.6267 28.8933 25.24 28.6533 26.04 28.44C26.8933 28.1733 27.6667 27.9333 28.36 27.72C28.6267 27.72 28.7333 27.8 28.68 27.96C28.6267 28.12 28.52 28.2533 28.36 28.36C27.9867 28.4667 27.56 28.68 27.08 29C26.6533 29.2667 26.3067 29.5867 26.04 29.96C25.4 30.76 24.6533 31.8 23.8 33.08C23 34.3067 22.0667 35.8267 21 37.64C23.24 37.2133 25.6667 36.52 28.28 35.56C30.9467 34.6 33.5867 33.4267 36.2 32.04C36.9467 30.7067 37.7733 29.1867 38.68 27.48C39.5867 25.7733 40.52 24.04 41.48 22.28C42.4933 20.52 43.4533 18.8133 44.36 17.16C45.32 15.5067 46.2 14.0933 47 12.92C48.12 11.2133 49.32 9.61333 50.6 8.12C51.88 6.62667 53.1867 5.34667 54.52 4.28C55.9067 3.16 57.2667 2.28 58.6 1.64C59.9867 1 61.32 0.68 62.6 0.68C63.2933 0.68 63.96 0.866667 64.6 1.24C65.24 1.56 65.56 2.52 65.56 4.12V4.2ZM63.4 5C63.4 4.30667 63.2933 3.77334 63.08 3.4C62.8667 3.02667 62.5733 2.76 62.2 2.6C61.88 2.38667 61.5067 2.25334 61.08 2.2C60.7067 2.14667 60.3333 2.12 59.96 2.12C59.48 2.12 58.8933 2.25334 58.2 2.52C57.5067 2.78667 56.68 3.34667 55.72 4.2C54.76 5 53.6133 6.17333 52.28 7.72C51 9.26667 49.5333 11.32 47.88 13.88C47.4 14.68 46.8133 15.72 46.12 17C45.4267 18.28 44.68 19.6933 43.88 21.24C43.08 22.7333 42.2533 24.3067 41.4 25.96C40.5467 27.6133 39.72 29.2133 38.92 30.76C41.32 29.48 43.9333 27.88 46.76 25.96C49.5867 23.9867 52.2267 21.8533 54.68 19.56C57.1867 17.2667 59.2667 14.8667 60.92 12.36C62.5733 9.85334 63.4 7.4 63.4 5ZM66.6737 45.48C65.7671 46.6 64.6737 47.7733 63.3937 49C62.1671 50.1733 60.8071 51.2667 59.3137 52.28C57.8737 53.24 56.3537 54.04 54.7537 54.68C53.2071 55.2667 51.6604 55.56 50.1137 55.56C47.6071 55.56 46.3537 54.44 46.3537 52.2C46.3537 50.7067 46.7271 49.1067 47.4738 47.4C48.2737 45.64 49.2871 44.04 50.5137 42.6C51.7404 41.1067 53.0738 39.88 54.5138 38.92C56.0071 37.9067 57.4204 37.4 58.7537 37.4C59.5004 37.4 60.0071 37.5333 60.2738 37.8C60.5938 38.0667 60.7537 38.4133 60.7537 38.84C60.7537 39.48 60.5404 40.1733 60.1138 40.92C59.7404 41.6667 59.1537 42.3867 58.3537 43.08C57.5537 43.72 56.5404 44.28 55.3137 44.76C54.0871 45.1867 52.6204 45.4 50.9137 45.4C50.6471 45.88 50.3537 46.6533 50.0338 47.72C49.7138 48.7333 49.5538 49.7733 49.5538 50.84C49.5538 53.0267 50.5404 54.12 52.5138 54.12C53.7404 54.12 54.9937 53.8267 56.2737 53.24C57.6071 52.6533 58.8871 51.9333 60.1138 51.08C61.3404 50.1733 62.4604 49.2133 63.4737 48.2C64.5404 47.1333 65.4204 46.1467 66.1137 45.24C66.2204 45.1333 66.3271 45.1067 66.4338 45.16C66.5938 45.2133 66.6737 45.32 66.6737 45.48ZM58.2737 39.24C58.2737 38.5467 57.9271 38.2 57.2337 38.2C56.7004 38.2 56.1404 38.4133 55.5538 38.84C55.0204 39.2133 54.4871 39.72 53.9537 40.36C53.4204 41 52.9137 41.6933 52.4338 42.44C51.9537 43.1867 51.5537 43.9067 51.2337 44.6C51.3404 44.6533 51.5271 44.7067 51.7937 44.76C52.0604 44.76 52.2737 44.76 52.4338 44.76C53.9804 44.76 55.3404 44.2267 56.5138 43.16C57.6871 42.04 58.2737 40.7333 58.2737 39.24Z" fill="currentColor"/>
</svg>
