<svg width="38" height="50" viewBox="0 0 38 50" fill="none" xmlns="http://www.w3.org/2000/svg">
<path fill-rule="evenodd" clip-rule="evenodd" d="M10.4203 39.611C12.291 42.241 14.483 45.3225 17.0474 48.9912C17.9908 50.3362 20.0091 50.3363 20.9526 48.9912C23.517 45.3225 25.709 42.241 27.5797 39.611C36.1982 27.4946 38 24.9616 38 18.75C38 8.39463 29.4934 0 19 0C8.50656 0 0 8.39463 0 18.75C0 24.9616 1.8018 27.4946 10.4203 39.611ZM27.0606 18.892C27.0606 23.2068 23.5162 26.7045 19.1439 26.7045C14.7717 26.7045 11.2273 23.2068 11.2273 18.892C11.2273 14.5773 14.7717 11.0795 19.1439 11.0795C23.5162 11.0795 27.0606 14.5773 27.0606 18.892Z" fill="#B38E6A"/>
</svg>
