<svg width="14" height="14" viewBox="0 0 14 14" fill="none" xmlns="http://www.w3.org/2000/svg">
<path fill-rule="evenodd" clip-rule="evenodd" d="M11.5227 0.000136754C10.8891 0.000136754 10.2558 0.241853 9.77266 0.725286L9.60094 0.897003L8.96028 0.256345C8.61848 -0.0854484 8.06477 -0.0854484 7.72298 0.256345L4.16611 3.81401C4.0808 3.89932 4.0808 4.03795 4.16611 4.12326L4.47537 4.43252C4.56068 4.51783 4.69931 4.51783 4.78462 4.43252L8.34176 0.875128L8.98215 1.51579L2.56869 7.93057C1.13344 9.36621 0.229325 11.2474 0.00494923 13.265L0.00412892 13.2713C-0.039621 13.6642 0.270183 14 0.654635 14C0.678971 14 0.703307 13.9986 0.72819 13.9959C2.74802 13.7727 4.63155 12.8681 6.06841 11.4311L13.2726 4.2258C14.8351 2.66285 13.7088 0.000136754 11.5227 0.000136754ZM5.4499 10.8123C4.2197 12.0428 2.60861 12.8469 0.908931 13.0925C1.15858 11.3797 1.96139 9.77516 3.18721 8.54908L5.33943 6.3966L7.60212 8.65982L5.4499 10.8123ZM8.22063 8.04103L12.6539 3.60702C12.9563 3.30487 13.1225 2.90292 13.1228 2.47554C13.1228 1.59043 12.4064 0.875128 11.5227 0.875128C11.0953 0.875128 10.6933 1.04165 10.3912 1.3438L5.95794 5.77781L8.22063 8.04103Z" fill="#B38E6A"/>
</svg>
