<?xml version="1.0" standalone="no"?>
<!DOCTYPE svg PUBLIC "-//W3C//DTD SVG 1.1//EN" "http://www.w3.org/Graphics/SVG/1.1/DTD/svg11.dtd" >
<svg xmlns="http://www.w3.org/2000/svg">
<metadata>Generated by IcoMoon</metadata>
<defs>
<font id="icomoon" horiz-adv-x="1024">
<font-face units-per-em="1024" ascent="960" descent="-64" />
<missing-glyph horiz-adv-x="1024" />
<glyph unicode="&#x20;" horiz-adv-x="512" d="" />
<glyph unicode="&#xe900;" glyph-name="check" horiz-adv-x="896" d="M880.2 754c20.4-18.8 20.4-49.2 0-66.2l-528-528c-17-20.4-47.4-20.4-66.2 0l-271.942 272c-18.744 17-18.744 47.4 0 66.2 18.742 18.6 49.142 18.6 67.882 0l238.060-238.2 494 494.2c18.8 18.68 49.2 18.68 66.2 0v0z" />
<glyph unicode="&#xe901;" glyph-name="search" d="M758.96 260.688l257.991-252.166c9.398-9.188 9.398-24.041 0-33.229l-19.803-19.354c-9.398-9.188-24.599-9.188-33.997 0l-257.985 252.166c-4.403 4.494-7.003 10.359-7.003 16.612v19.94c-74.194-66.85-173.189-107.901-282.184-107.901-229.788 0-415.98 181.988-415.98 406.591s186.191 406.591 415.98 406.591 415.981-181.989 415.981-406.591c0-106.535-42.001-203.293-110.598-275.815h20.599c6.4 0 12.402-2.35 16.998-6.844zM64 543.347c0-190.198 157.392-344.037 351.982-344.037 194.589 0 351.984 153.839 351.984 344.037s-157.394 344.038-351.984 344.038c-194.59 0-351.982-153.84-351.982-344.038z" />
<glyph unicode="&#xe902;" glyph-name="phone" horiz-adv-x="626" d="M625.778 864c0 53-42.047 96-93.867 96h-438.044c-51.822 0-93.867-43-93.867-96v-832c0-52.998 42.044-96 93.867-96h438.044c51.82 0 93.867 43.002 93.867 96v832zM375.467 128c0 35.402-27.964 64-62.578 64s-62.578-28.598-62.578-64c0-35.402 27.964-64 62.578-64s62.578 28.598 62.578 64zM531.911 896c17.209 0 31.289-14.4 31.289-32v-832c0-17.601-14.080-32-31.289-32h-438.044c-17.209 0-31.289 14.399-31.289 32v832c0 17.6 14.080 32 31.289 32h438.044z" />
<glyph unicode="&#xe903;" glyph-name="email" d="M0 448c0 283.006 229.039 512 512 512 284.621 0 512-197.809 512-478.967 0-168.73-105.108-286.871-327.344-286.871-58.88 0-97.417 29.781-94.919 87.148-33.096-46.876-96.832-96.996-178.854-96.996-117.281 0-187.299 75.907-187.299 203.054 0 194.223 134.466 324.184 274.943 324.184 71.713 0 127.271-32.919 151.483-88.822 1.758 21.39 2.867 27.005 6.070 43.248 0.563 2.857 1.195 6.043 1.9 9.701 2.258 11.649 12.459 20.063 24.326 20.063h25.64c15.593 0 27.307-14.227 24.314-29.527l-66.207-338.728c-8.653-47.588-0.478-69.922 40.266-69.922 130.571 0 239.616 73.023 239.616 223.468 0 247.692-201.404 412.903-445.935 412.903-246.489 0-445.936-199.484-445.936-445.936 0-246.488 199.488-445.935 445.936-445.935 94.913 0 187.728 30.538 263.856 86.414 10.559 7.748 25.372 5.74 33.667-4.398l10.473-12.794c8.937-10.917 7.031-27.164-4.324-35.533-87.558-64.495-194.406-99.755-303.673-99.755-283.006 0-512 229.040-512 512zM312.774 391.306c0-86.831 45.211-138.663 120.94-138.663 120.506 0 199.722 133.865 199.722 253.883 0 78.338-39.731 135.711-119.955 135.711-95.901 0-200.706-96.733-200.706-250.932z" />
<glyph unicode="&#xe904;" glyph-name="date" horiz-adv-x="910" d="M812.698 832c53.84 0 97.525-43 97.525-96v-704c0-52.998-43.685-96-97.525-96h-715.174c-53.842 0-97.524 43.002-97.524 96v704c0 53 43.683 96 97.524 96h97.523v104c0 13.2 10.972 24 24.381 24h16.254c13.409 0 24.381-10.8 24.381-24v-104h390.097v104c0 13.2 10.968 24 24.377 24h16.259c13.409 0 24.377-10.8 24.377-24v-104h97.525zM97.524 768c-17.88 0-32.508-14.4-32.508-32v-96h780.188v96c0 17.6-14.626 32-32.506 32h-715.174zM97.524 0h715.174c17.88 0 32.506 14.399 32.506 32v544h-780.188v-544c0-17.601 14.628-32 32.508-32zM300.698 320c13.41 0 24.381 10.798 24.381 24.001v79.998c0 13.2-10.972 24-24.381 24h-81.27c-13.409 0-24.381-10.8-24.381-24v-79.998c0-13.204 10.972-24.001 24.381-24.001h81.27zM414.476 320c-13.409 0-24.381 10.798-24.381 24.001v79.998c0 13.2 10.972 24 24.381 24h81.27c13.409 0 24.381-10.8 24.381-24v-79.998c0-13.204-10.972-24.001-24.381-24.001h-81.27zM609.525 320h81.271c13.409 0 24.377 10.798 24.377 24.001v79.998c0 13.2-10.968 24-24.377 24h-81.271c-13.409 0-24.383-10.8-24.383-24v-79.998c0-13.204 10.974-24.001 24.383-24.001zM414.476 128c-13.409 0-24.381 10.798-24.381 24.001v79.997c0 13.204 10.972 24.001 24.381 24.001h81.27c13.409 0 24.381-10.798 24.381-24.001v-79.997c0-13.204-10.972-24.001-24.381-24.001h-81.27zM300.698 128c13.41 0 24.381 10.798 24.381 24.001v79.997c0 13.204-10.972 24.001-24.381 24.001h-81.27c-13.409 0-24.381-10.798-24.381-24.001v-79.997c0-13.204 10.972-24.001 24.381-24.001h81.27zM585.142 152.001v79.997c0 13.204 10.974 24.001 24.383 24.001h81.271c13.409 0 24.377-10.798 24.377-24.001v-79.997c0-13.204-10.968-24.001-24.377-24.001h-81.271c-13.409 0-24.383 10.798-24.383 24.001z" />
<glyph unicode="&#xe905;" glyph-name="comment" horiz-adv-x="1308" d="M1294.222 25.122c-1.132 0.916-51.325 55.302-86.067 125.457 62.453 61.929 99.92 139.628 99.92 224.41 0 182.815-173.727 333.867-400.139 360.833-71.305 131.628-239.582 224.179-435.565 224.179-260.931 0-472.355-163.62-472.355-365.633 0-84.552 37.471-162.249 99.921-224.407-34.745-70.155-84.706-124.541-85.614-125.457-14.307-15.309-18.395-37.706-9.992-57.128 8.175-19.428 27.251-31.994 48.144-31.994 121.495 0 219.6 46.16 284.321 88.667 20.665-4.801 41.785-8.459 63.586-10.974 71.534-131.396 239.584-223.949 435.566-223.949 47.235 0 92.655 5.484 135.799 15.542 64.722-42.28 162.6-88.667 284.325-88.667 20.89 0 39.743 12.567 48.145 31.994 8.175 19.422 4.312 41.819-9.995 57.128zM352.919 315.574l-29.976 6.855-25.889-16.913c-45.646-29.935-114.682-64.444-199.161-74.268 19.984 25.822 45.873 63.073 66.993 106.035l23.617 47.531-37.47 37.25c-35.881 35.42-78.347 94.15-78.347 172.304 0 161.336 179.404 292.506 399.685 292.506 220.28 0 399.685-131.17 399.685-292.506s-179.405-292.503-399.685-292.503c-40.196 0-80.391 4.568-119.451 13.71zM985.151 103.049l-29.98-7.083c-39.060-9.142-79.252-13.71-119.45-13.71-147.837 0-277.055 59.182-346.091 146.938 252.753 7.31 455.096 167.732 455.096 365.173 0 21.709-2.953 42.733-7.492 63.3 171.23-33.136 298.172-147.167 298.172-282.679 0-78.154-42.468-136.886-78.347-172.305l-37.467-37.251 23.387-47.303c21.35-43.19 47.235-80.441 66.992-106.035-84.252 9.603-153.287 44.334-198.935 74.041l-25.884 16.913z" />
<glyph unicode="&#xe906;" glyph-name="pin" horiz-adv-x="796" d="M603.090 703.969l20.952-151.818c100.204-55.207 172.607-149.018 172.402-262.632 0-17.601-14.939-32.006-33.195-32.006h-331.938v-241.63c0-1.2 0-2.6-0.415-3.8l-16.597-64.006c-4.149-16.202-28.008-16.003-32.156 0l-16.597 64.006c-0.207 1.2-0.415 2.401-0.415 3.8v241.63h-331.938c-18.257 0-33.194 14.404-33.194 32.006 0 113.613 72.404 207.425 172.608 262.632l20.953 151.818h-77.383c-27.385 0-49.791 21.603-49.791 48.006v160.020c0 26.403 22.406 48.006 49.791 48.006h564.292c27.386 0 49.795-21.603 49.795-48.006v-160.020c0-26.403-22.409-48.006-49.795-48.006h-77.38zM234.016 510.545c-82.777-36.205-150.824-103.213-164.932-189.021v-0.205h658.689c-14.108 85.413-81.948 152.621-164.932 189.025l-31.742 257.632h132.776v128.015h-531.101v-128.015h132.775l-31.534-257.431z" />
<glyph unicode="&#xe907;" glyph-name="close" horiz-adv-x="640" d="M624.2 210c18.738-18.738 18.738-49.14 0-67.88s-49.14-18.738-67.88 0l-236.32 238.080-238-238c-18.738-18.738-49.14-18.738-67.88 0s-18.738 49.14 0 67.88l238.080 237.92-238.146 239.8c-18.738 18.738-18.738 49.14 0 67.88s49.14 18.738 67.88 0l238.066-239.88 238 238c18.738 18.738 49.14 18.738 67.88 0s18.738-49.14 0-67.88l-238.080-237.92 236.4-238z" />
<glyph unicode="&#xe908;" glyph-name="arrow-left" horiz-adv-x="1829" d="M559.060 925.957l28.861-28.28c19.127-18.744 19.127-49.136 0-67.884l-342.563-333.776h1534.237c27.048 0 48.976-21.492 48.976-48v-40c0-26.508-21.928-48-48.976-48h-1534.237l342.563-333.78c19.127-18.739 19.127-49.13 0-67.884l-28.861-28.277c-19.127-18.747-50.139-18.747-69.266 0l-475.45 464.001c-19.127 18.744-19.127 49.136 0 67.884l475.45 463.997c19.126 18.748 50.139 18.748 69.266 0z" />
<glyph unicode="&#xe909;" glyph-name="arrow-right" horiz-adv-x="1829" d="M1269.511 925.957l-28.862-28.28c-19.127-18.744-19.127-49.136 0-67.884l342.565-333.776h-1534.234c-27.049 0-48.98-21.492-48.98-48v-40c0-26.508 21.931-48 48.98-48h1534.234l-342.565-333.78c-19.127-18.739-19.127-49.13 0-67.884l28.862-28.277c19.127-18.747 50.139-18.747 69.266 0l475.451 464.001c19.127 18.744 19.127 49.136 0 67.884l-475.451 463.997c-19.127 18.748-50.139 18.748-69.266 0z" />
<glyph unicode="&#xe90a;" glyph-name="chevron-left" horiz-adv-x="597" d="M484.514-49.796c19.196-18.94 50.231-18.94 69.427 0l28.996 28.604c19.196 18.94 19.196 49.562 0 68.497l-406.764 400.495 406.355 400.896c19.196 18.937 19.196 49.558 0 68.495l-28.996 28.607c-19.196 18.937-50.231 18.937-69.427 0l-470.065-463.348c-18.786-19.341-18.786-49.963 0.408-68.898l470.067-463.347z" />
<glyph unicode="&#xe90b;" glyph-name="chevron-right" horiz-adv-x="597" d="M112.82 945.797c-19.195 18.937-50.233 18.937-69.428 0l-28.996-28.607c-19.195-18.937-19.195-49.558 0-68.495l406.764-400.495-406.356-400.896c-19.195-18.935-19.195-49.557 0-68.497l28.996-28.604c19.194-18.94 50.233-18.94 69.428 0l470.068 463.347c18.786 19.341 18.786 49.963-0.41 68.898l-470.066 463.348z" />
<glyph unicode="&#xe90c;" glyph-name="play" horiz-adv-x="1126" d="M1085.44 448l-1024.002-512v1024l1024.002-512z" />
<glyph unicode="&#xe90d;" glyph-name="plus" d="M1002.667 512h-426.667v426.667c0 11.787-9.547 21.333-21.333 21.333h-85.334c-11.786 0-21.333-9.547-21.333-21.333v-426.667h-426.667c-11.787 0-21.333-9.547-21.333-21.333v-85.334c0-11.786 9.547-21.333 21.333-21.333h426.667v-426.667c0-11.786 9.547-21.333 21.333-21.333h85.334c11.786 0 21.333 9.547 21.333 21.333v426.667h426.667c11.786 0 21.333 9.547 21.333 21.333v85.334c0 11.786-9.547 21.333-21.333 21.333z" />
<glyph unicode="&#xe90e;" glyph-name="facebook" horiz-adv-x="602" d="M548 944v-150.857h-89.714c-70.286 0-83.429-33.714-83.429-82.286v-108h167.429l-22.286-169.143h-145.143v-433.714h-174.857v433.714h-145.714v169.143h145.714v124.571c0 144.571 88.571 223.429 217.714 223.429 61.714 0 114.857-4.571 130.286-6.857z" />
<glyph unicode="&#xe90f;" glyph-name="instagram" horiz-adv-x="878" d="M585.143 438.857c0 80.571-65.714 146.286-146.286 146.286s-146.286-65.714-146.286-146.286 65.714-146.286 146.286-146.286 146.286 65.714 146.286 146.286zM664 438.857c0-124.571-100.571-225.143-225.143-225.143s-225.143 100.571-225.143 225.143 100.571 225.143 225.143 225.143 225.143-100.571 225.143-225.143zM725.714 673.143c0-29.143-23.429-52.571-52.571-52.571s-52.571 23.429-52.571 52.571 23.429 52.571 52.571 52.571 52.571-23.429 52.571-52.571zM438.857 798.857c-64 0-201.143 5.143-258.857-17.714-20-8-34.857-17.714-50.286-33.143s-25.143-30.286-33.143-50.286c-22.857-57.714-17.714-194.857-17.714-258.857s-5.143-201.143 17.714-258.857c8-20 17.714-34.857 33.143-50.286s30.286-25.143 50.286-33.143c57.714-22.857 194.857-17.714 258.857-17.714s201.143-5.143 258.857 17.714c20 8 34.857 17.714 50.286 33.143s25.143 30.286 33.143 50.286c22.857 57.714 17.714 194.857 17.714 258.857s5.143 201.143-17.714 258.857c-8 20-17.714 34.857-33.143 50.286s-30.286 25.143-50.286 33.143c-57.714 22.857-194.857 17.714-258.857 17.714zM877.714 438.857c0-60.571 0.571-120.571-2.857-181.143-3.429-70.286-19.429-132.571-70.857-184s-113.714-67.429-184-70.857c-60.571-3.429-120.571-2.857-181.143-2.857s-120.571-0.571-181.143 2.857c-70.286 3.429-132.571 19.429-184 70.857s-67.429 113.714-70.857 184c-3.429 60.571-2.857 120.571-2.857 181.143s-0.571 120.571 2.857 181.143c3.429 70.286 19.429 132.571 70.857 184s113.714 67.429 184 70.857c60.571 3.429 120.571 2.857 181.143 2.857s120.571 0.571 181.143-2.857c70.286-3.429 132.571-19.429 184-70.857s67.429-113.714 70.857-184c3.429-60.571 2.857-120.571 2.857-181.143z" />
<glyph unicode="&#xe910;" glyph-name="twitter" horiz-adv-x="951" d="M925.714 717.714c-25.143-36.571-56.571-69.143-92.571-95.429 0.571-8 0.571-16 0.571-24 0-244-185.714-525.143-525.143-525.143-104.571 0-201.714 30.286-283.429 82.857 14.857-1.714 29.143-2.286 44.571-2.286 86.286 0 165.714 29.143 229.143 78.857-81.143 1.714-149.143 54.857-172.571 128 11.429-1.714 22.857-2.857 34.857-2.857 16.571 0 33.143 2.286 48.571 6.286-84.571 17.143-148 91.429-148 181.143v2.286c24.571-13.714 53.143-22.286 83.429-23.429-49.714 33.143-82.286 89.714-82.286 153.714 0 34.286 9.143 65.714 25.143 93.143 90.857-112 227.429-185.143 380.571-193.143-2.857 13.714-4.571 28-4.571 42.286 0 101.714 82.286 184.571 184.571 184.571 53.143 0 101.143-22.286 134.857-58.286 41.714 8 81.714 23.429 117.143 44.571-13.714-42.857-42.857-78.857-81.143-101.714 37.143 4 73.143 14.286 106.286 28.571z" />
<glyph unicode="&#xe911;" glyph-name="vegan" horiz-adv-x="1178" d="M1018.209 960c-220.57 0-405.719-181.486-453.56-424.457-80.499 165.943-231.609 278.172-405.259 278.172h-159.39v-36.572c0-302.4 209.070-548.571 466.21-548.571h85.788v-274.289c0-10.056 8.284-18.284 18.401-18.284h36.803c10.117 0 18.401 8.228 18.401 18.284v420.572h85.786c257.142 0 466.212 246.173 466.212 548.573v36.571h-159.391zM466.21 301.716c-206.31 0-376.050 193.826-391.46 438.855h84.64c206.31 0 375.819-193.829 391.46-438.855h-84.641zM626.749 448c15.411 245.028 185.149 438.857 391.46 438.857h84.639c-15.406-245.029-185.149-438.857-391.46-438.857h-84.639z" />
<glyph unicode="&#xe912;" glyph-name="spicy" d="M904.806 688.8c75.622-64.477 119.188-158.86 119.199-258.238 0-26.962-3.881-54.559-12.119-86.62-4.7-18.222-17.321-26.22-29.778-26.22-8.166 0.026-15.974 3.359-21.642 9.236-149.601-216.678-462.46-390.958-832.46-390.958-37.85 0.036-73.748 16.804-98.065 45.809s-34.565 67.277-27.995 104.55c6 35.579 42.34 105.103 125.16 105.759 88.78 0.722 175.98 32.881 226.32 106.004 37.040 53.837 58.98 115.876 80.46 177.078 24.6 70.32 50.12 137.3 95.998 186.94-22.039 9.44-27.058 40.68-2.939 55.86 52.183 32.68 110.879 50 169.738 50 60.283 0 107.843-12 156.401-41.34 61.102 90.7 44.104 154.84 27.622 186-3.364 6.112-2.335 13.706 2.54 18.7l23.997 24c2.949 2.967 6.958 4.637 11.141 4.64 5.437 0.030 10.486-2.814 13.281-7.48 23.639-39.5 60.621-135.32-26.86-263.72zM696.684 704c-25.354-0.070-50.545-4.064-74.675-11.84l75.218-32.16c23.552-10.098 38.81-33.273 38.779-58.9v-103.46h121.861c17.413 0.002 34.074-7.090 46.141-19.64l55.736-57.919c0.261 3.538 0.261 7.020 0.261 10.481 0 92.079-73.999 273.439-263.322 273.439zM64.986 75.638c-8.52-50.678 35.020-75.638 63.020-75.638 295.76 0 613.401 122.281 786.359 372.859-27.238 29.020-56.479 60.82-56.479 60.82h-121.882c-35.343 0-64 28.655-64 64.001v103.42l-80.881 32.8c-2.263-2.441-4.526-4.798-6.81-7.177-22.241-23.156-46.454-48.369-90.109-172.823l-0.003-0.009c-21.499-61.32-45.859-130.793-88.117-192.172-57.84-84.040-159.36-132.756-278.54-133.699-47.12-0.379-61.14-44.042-62.56-52.383z" />
<glyph unicode="&#xe913;" glyph-name="icon-quote" horiz-adv-x="1352" d="M0 960v-1024l506.88 512v512h-506.88zM844.8 960v-1024l506.88 512v512h-506.88z" />
<glyph unicode="&#xe914;" glyph-name="minus" horiz-adv-x="896" d="M864 448c0-26.6-21.4-48-48-48h-736c-26.5 0-48 21.48-48 47.98 0 26.42 21.5 48.020 48 48.020h736c26.6 0 48-21.6 48-48z" />
<glyph unicode="&#xe915;" glyph-name="clock" d="M464 720c0 26.6 21.4 48 48 48s48-21.4 48-48v-246.4l170.6-113.6c22-14.8 28-44.6 11.6-66.6-13-22-42.8-28-64.8-11.6l-192 128c-13.4 7.2-21.4 22.2-21.4 40v270.2zM512 960c282.8 0 512-229.2 512-512s-229.2-512-512-512c-282.8 0-512 229.2-512 512s229.2 512 512 512zM96 448c0-229.8 186.2-416 416-416s416 186.2 416 416c0 229.8-186.2 416-416 416s-416-186.2-416-416z" />
<glyph unicode="&#xe916;" glyph-name="reply" d="M1024 288v-238.2c0-28.4-21.4-49.8-48-49.8s-48 21.5-48 46.2v238.2c0 114.68-93.32 206.2-208 206.2h-542.98l254.4-219.6c20.060-17.312 22.24-47.62 4.938-67.68-9.558-5.72-22.958-11.32-36.358-11.32-11.124 0-22.32 3.818-31.38 11.694l-352 302.2c-10.562 10.906-16.62 25.906-16.62 38.106 0 14 6.058 27.2 16.62 36.2l352 302.2c18.2 17.436 50.32 15.15 67.7-4.974 17.312-20.060 15.124-50.38-4.938-67.68l-254.362-217.746h542.98c167.6 0 304-136.4 304-304z" />
</font>
</defs>
</svg>
